<svg width="512" height="512" viewBox="0 0 512 512" fill="none" xmlns="http://www.w3.org/2000/svg">
<g clip-path="url(#clip0_786_35)">
<path d="M423.978 330.73V387.586C423.978 407.691 407.682 424 387.578 424H98.0294C89.1143 424 84.6456 413.214 90.9511 406.907L158.822 339.041C164.142 333.721 171.366 330.73 178.892 330.73H424H423.978Z" fill="black"/>
<path d="M423.983 202.302V259.147C423.983 279.252 407.687 295.561 387.572 295.561H202.293L287.244 210.613C292.564 205.293 299.777 202.302 307.303 202.302H423.994H423.983Z" fill="black"/>
<path d="M423.981 98.0303V130.726C423.981 150.831 407.685 167.14 387.57 167.14H330.709L406.89 90.9513C413.196 84.6453 423.981 89.1144 423.981 98.0303Z" fill="black"/>
</g>
<defs>
<clipPath id="clip0_786_35">
<rect width="512" height="512" rx="64.125" fill="white"/>
</clipPath>
</defs>
</svg>
