<svg width="66" height="62" viewBox="0 0 66 62" fill="none" xmlns="http://www.w3.org/2000/svg">
<g clip-path="url(#clip0_3415_67991)">
<path fill-rule="evenodd" clip-rule="evenodd" d="M49.89 42.9445C49.6714 43.3155 49.358 43.6216 48.982 43.8315C48.606 44.0414 48.1809 44.1475 47.7503 44.1388H17.7759C17.3453 44.1481 16.9199 44.0424 16.5438 43.8324C16.1677 43.6224 15.8544 43.3159 15.6363 42.9445C13.9291 39.9485 13.0383 36.5569 13.0529 33.1087C13.0675 29.6605 13.9871 26.2766 15.7196 23.2953C17.4522 20.3139 19.937 17.8396 22.9257 16.1197C25.9144 14.3998 29.3022 13.4946 32.7504 13.4946C36.1986 13.4946 39.5864 14.3998 42.5751 16.1197C45.5637 17.8396 48.0486 20.3139 49.7811 23.2953C51.5137 26.2766 52.4332 29.6605 52.4478 33.1087C52.4625 36.5569 51.5716 39.9485 49.8645 42.9445H49.89Z" fill="#FFA55B"/>
<path d="M10.291 48.6099H55.639" stroke="#CF650D" stroke-width="1.28" stroke-linecap="round"/>
<path d="M32.5432 38.9335C35.665 38.9335 38.1957 36.4028 38.1957 33.281C38.1957 30.1591 35.665 27.6284 32.5432 27.6284C29.4213 27.6284 26.8906 30.1591 26.8906 33.281C26.8906 36.4028 29.4213 38.9335 32.5432 38.9335Z" stroke="#CF650D" stroke-width="1.28" stroke-linecap="round"/>
</g>
<path d="M11 1H5C2.79086 1 1 2.79086 1 5V57C1 59.2091 2.79086 61 5 61H11" stroke="#00160E"/>
<path d="M55 1H61C63.2091 1 65 2.79086 65 5V57C65 59.2091 63.2091 61 61 61H55" stroke="#00160E"/>
<defs>
<clipPath id="clip0_3415_67991">
<rect width="44" height="44" fill="white" transform="translate(11 9)"/>
</clipPath>
</defs>
</svg>
