<svg width="108" height="24" viewBox="0 0 108 24" fill="none" xmlns="http://www.w3.org/2000/svg">
<path d="M15.727 1.06199C18.0236 1.05666 20.2583 1.80326 22.0926 3.18982L20.2434 5.04033C18.9109 4.13267 17.3376 3.64631 15.727 3.64631C14.1165 3.64631 12.5432 4.13161 11.2107 5.04033L9.35938 3.18982C11.1936 1.8022 13.4294 1.05559 15.727 1.06199Z" fill="#1C1C1C"/>
<path d="M15.7274 19.6825C13.9815 19.6878 12.2815 19.1172 10.8904 18.0581L9.05078 19.899C10.9404 21.4317 13.2977 22.2679 15.7274 22.2679C18.157 22.2679 20.5143 21.4317 22.405 19.899L20.5654 18.0581C19.1743 19.1172 17.4743 19.6878 15.7274 19.6825Z" fill="#1C1C1C"/>
<path d="M7.71557 11.6594C7.71024 9.91237 8.27905 8.21224 9.33465 6.82355L7.49933 4.9837C6.01127 6.81929 5.1783 9.10177 5.13462 11.4674C5.09095 13.8331 5.83765 16.1455 7.25647 18.0354L9.10883 16.1828C8.19703 14.8517 7.71131 13.2732 7.71663 11.6584L7.71557 11.6594Z" fill="#1C1C1C"/>
<path d="M2.58751 11.6595C2.57899 8.54833 3.68039 5.53738 5.69359 3.16957L3.86254 1.33612C1.41687 4.14442 0.0481117 7.73453 0.00124356 11.4633C-0.0456245 15.192 1.23366 18.8152 3.60902 21.6832L5.44433 19.8455C3.58665 17.5247 2.57899 14.6353 2.58645 11.6595H2.58751Z" fill="#1C1C1C"/>
<path d="M30.8766 11.6591C30.8809 7.86319 29.51 4.19416 27.0186 1.33679L25.1875 3.17024C27.1496 5.49005 28.2478 8.42101 28.2936 11.4629C28.3394 14.5048 27.3317 17.4688 25.441 19.8473L27.2678 21.6957C29.6027 18.8767 30.8777 15.325 30.8713 11.6602H30.8766V11.6591Z" fill="#1C1C1C"/>
<path d="M106.437 17.7375C105.578 17.7375 105.107 17.3227 105.107 16.3823V9.88281H107.547V8.22336H105.107V4.93212H102.473V8.22336H100.365V9.88281H102.473V16.3823C102.473 18.429 103.415 19.8672 105.661 19.8672C106.41 19.8672 106.964 19.7565 107.574 19.5629V17.6269C107.325 17.6822 106.937 17.7375 106.437 17.7375ZM88.2488 13.9208C88.2488 17.2397 90.5779 19.8672 94.0991 19.8672C97.6204 19.8672 99.9494 17.2397 99.9494 13.9208C99.9494 10.6019 97.6204 7.97445 94.0991 7.97445C90.5779 7.97445 88.2488 10.6019 88.2488 13.9208ZM94.0991 17.9588C92.2137 17.9588 90.9383 16.493 90.9383 13.9208C90.9383 11.3487 92.2137 9.88281 94.0991 9.88281C95.9845 9.88281 97.26 11.3487 97.26 13.9208C97.26 16.493 95.9845 17.9588 94.0991 17.9588ZM83.8958 19.5076H86.5298V3.77051H83.8958V19.5076ZM78.8218 6.39797H81.5668V3.77051H78.8218V6.39797ZM78.8773 19.5076H81.5113V8.22336H78.8773V19.5076ZM65.7626 23.9605H68.3966V17.0738C69.0344 18.8162 70.4761 19.8672 72.1675 19.8672C75.1065 19.8672 77.186 17.378 77.186 13.9208C77.186 10.4636 75.1065 7.97445 72.1952 7.97445C70.1989 7.97445 68.9512 9.16372 68.3966 10.9061V8.22336H65.7626V23.9605ZM71.3911 18.0141C69.3948 18.0141 68.3135 16.3823 68.3135 13.9208C68.3135 11.4593 69.3948 9.8275 71.3911 9.8275C73.4983 9.8275 74.4965 11.6806 74.4965 13.9208C74.4965 16.1611 73.4983 18.0141 71.3911 18.0141ZM52.3984 13.9208C52.3984 17.2397 54.7275 19.8672 58.2487 19.8672C61.77 19.8672 64.099 17.2397 64.099 13.9208C64.099 10.6019 61.77 7.97445 58.2487 7.97445C54.7275 7.97445 52.3984 10.6019 52.3984 13.9208ZM58.2487 17.9588C56.3633 17.9588 55.0879 16.493 55.0879 13.9208C55.0879 11.3487 56.3633 9.88281 58.2487 9.88281C60.1341 9.88281 61.4096 11.3487 61.4096 13.9208C61.4096 16.493 60.1341 17.9588 58.2487 17.9588Z" fill="#1C1C1C"/>
<path d="M44.1876 19.8671C39.585 19.8671 36.2578 16.6035 36.2578 11.5975C36.2578 6.56387 39.585 3.32794 44.1876 3.32794C48.4575 3.32794 51.0361 6.23198 51.3688 8.91476H48.4298C47.9307 7.08936 46.4334 5.51288 44.1321 5.51288C41.0545 5.51288 39.0582 7.91909 39.0859 11.5975C39.1136 15.276 41.0822 17.6822 44.1044 17.6822C46.683 17.6822 48.097 16.0504 48.5407 14.2527H51.452C51.0638 17.1843 48.3743 19.8671 44.1876 19.8671Z" fill="#1C1C1C"/>
</svg>
