<svg width="16" height="14" viewBox="0 0 16 14" fill="none" xmlns="http://www.w3.org/2000/svg">
<g id="Icon">
<path id="Vector" d="M11.3986 13.044V11.7202C11.3986 11.0181 11.1197 10.3447 10.6232 9.84816C10.1267 9.35166 9.45326 9.07272 8.7511 9.07272H3.45609C2.75393 9.07272 2.08053 9.35166 1.58403 9.84816C1.08753 10.3447 0.808594 11.0181 0.808594 11.7202V13.044" stroke="#757575" stroke-width="1.36" stroke-linecap="round" stroke-linejoin="round"/>
<path id="Vector_2" d="M6.10453 6.42498C7.56671 6.42498 8.75203 5.23965 8.75203 3.77748C8.75203 2.3153 7.56671 1.12997 6.10453 1.12997C4.64236 1.12997 3.45703 2.3153 3.45703 3.77748C3.45703 5.23965 4.64236 6.42498 6.10453 6.42498Z" stroke="#757575" stroke-width="1.36" stroke-linecap="round" stroke-linejoin="round"/>
<path id="Vector_3" d="M15.3684 13.0432V11.7195C15.368 11.1329 15.1728 10.563 14.8134 10.0994C14.454 9.6358 13.9508 9.30467 13.3828 9.15802" stroke="#757575" stroke-width="1.36" stroke-linecap="round" stroke-linejoin="round"/>
<path id="Vector_4" d="M10.7383 1.21555C11.3078 1.36136 11.8125 1.69256 12.173 2.15694C12.5334 2.62132 12.7291 3.19245 12.7291 3.78031C12.7291 4.36817 12.5334 4.93931 12.173 5.40369C11.8125 5.86806 11.3078 6.19927 10.7383 6.34508" stroke="#757575" stroke-width="1.36" stroke-linecap="round" stroke-linejoin="round"/>
</g>
</svg>
