<svg width="20" height="20" viewBox="0 0 20 20" fill="none" xmlns="http://www.w3.org/2000/svg">
<path d="M5.57031 8.11602C6.30312 6.39336 8.01211 5.1875 10 5.1875C11.0855 5.1875 12.1273 5.61953 12.8957 6.38789L13.0078 6.5L12.0316 7.47617C11.8512 7.65664 11.75 7.90273 11.75 8.15977C11.75 8.69297 12.182 9.125 12.7152 9.125H15.9062C16.2699 9.125 16.5625 8.83242 16.5625 8.46875V5.27773C16.5625 4.74453 16.1305 4.3125 15.5973 4.3125C15.3402 4.3125 15.0969 4.41367 14.9137 4.59414L13.9375 5.57305L13.8254 5.46094C12.8109 4.44375 11.4355 3.875 10 3.875C7.46797 3.875 5.29414 5.41172 4.36172 7.60195C4.21953 7.93555 4.37539 8.32109 4.70898 8.46328C5.04258 8.60547 5.42813 8.44961 5.57031 8.11602ZM15.6328 12.409C15.775 12.0754 15.6219 11.6898 15.2883 11.5477C14.9547 11.4055 14.5691 11.5586 14.427 11.8922C13.6914 13.6121 11.9852 14.8125 10 14.8125C8.91445 14.8125 7.87266 14.3805 7.1043 13.6121L6.99219 13.5L7.96836 12.5238C8.14883 12.3434 8.25 12.0973 8.25 11.8402C8.25 11.307 7.81797 10.875 7.28477 10.875H4.09375C3.73008 10.875 3.4375 11.1676 3.4375 11.5312V14.7223C3.4375 15.2555 3.86953 15.6875 4.40273 15.6875C4.65977 15.6875 4.90313 15.5863 5.08633 15.4059L6.0625 14.427L6.17461 14.5391C7.18906 15.5563 8.56445 16.125 10 16.125C12.5293 16.125 14.6977 14.5938 15.6328 12.409ZM15.25 7.8125H13.552L15.25 6.11445V7.8125ZM4.75 12.1875H6.44805L4.75 13.8855V12.1875Z" fill="#6B6F76"/>
</svg>
