<svg width="12" height="12" viewBox="0 0 12 12" fill="none" xmlns="http://www.w3.org/2000/svg">
<path d="M8.13212 5.0875C8.13212 4.2795 7.81114 3.50459 7.2398 2.93325C6.66846 2.3619 5.89355 2.04093 5.08555 2.04093C4.27754 2.04093 3.50264 2.3619 2.93129 2.93325C2.35995 3.50459 2.03897 4.2795 2.03897 5.0875C2.03897 5.8955 2.35995 6.67041 2.93129 7.24175C3.50264 7.8131 4.27754 8.13407 5.08555 8.13407C5.89355 8.13407 6.66846 7.8131 7.2398 7.24175C7.81114 6.67041 8.13212 5.8955 8.13212 5.0875ZM7.54375 8.1931C6.8697 8.72816 6.01475 9.04805 5.08555 9.04805C2.89773 9.04805 1.125 7.27532 1.125 5.0875C1.125 2.89968 2.89773 1.12695 5.08555 1.12695C7.27337 1.12695 9.04609 2.89968 9.04609 5.0875C9.04609 6.0167 8.7262 6.87165 8.19115 7.5457L10.7407 10.0953C10.9197 10.2743 10.9197 10.5637 10.7407 10.7408C10.5618 10.9179 10.2723 10.9198 10.0953 10.7408L7.54375 8.1931Z" fill="#212B36"/>
</svg>
