<svg width="16" height="16" viewBox="0 0 16 16" fill="none" xmlns="http://www.w3.org/2000/svg">
<path d="M5.17599 1.88234H1.88218C1.62338 1.88234 1.41163 2.09408 1.41163 2.35288V13.646C1.41163 13.9048 1.62338 14.1165 1.88218 14.1165H9.4109C9.6697 14.1165 9.88144 13.9048 9.88144 13.646V12.2343H11.2931V13.646C11.2931 14.6841 10.449 15.5281 9.4109 15.5281H1.88218C0.84404 15.5281 0 14.6841 0 13.646V2.35288C0 1.31474 0.84404 0.470703 1.88218 0.470703H5.80829C6.30824 0.470703 6.78761 0.667744 7.14052 1.02065L10.7431 4.6262C11.096 4.97911 11.2931 5.45848 11.2931 5.95843V8.00236H9.88144V6.59073H7.29345C6.12297 6.59073 5.17599 5.64376 5.17599 4.47328V1.88528V1.88234ZM7.29345 9.41106H13.5899L12.6782 8.49938C12.4018 8.22293 12.4018 7.77591 12.6782 7.50241C12.9547 7.2289 13.4017 7.22596 13.6752 7.50241L15.7927 9.61986C16.0691 9.89631 16.0691 10.3433 15.7927 10.6168L13.6752 12.7343C13.3988 13.0107 12.9518 13.0107 12.6782 12.7343C12.4047 12.4578 12.4018 12.0108 12.6782 11.7373L13.5899 10.8256H7.29345C6.90231 10.8256 6.58763 10.511 6.58763 10.1198C6.58763 9.72867 6.90231 9.414 7.29345 9.414V9.41106ZM9.2962 5.17615L6.58763 2.46758V4.47034C6.58763 4.86148 6.90231 5.17615 7.29345 5.17615H9.2962Z" fill="#212B36"/>
</svg>
