<svg width="172" height="172" viewBox="0 0 172 172" fill="none" xmlns="http://www.w3.org/2000/svg">
<g filter="url(#filter0_d_1459_13680)">
<rect x="1" y="1" width="164" height="164" rx="35" fill="url(#paint0_linear_1459_13680)"/>
<path d="M144 132.723C144 138.924 138.973 143.95 132.772 143.95H22L52.5432 113.407C54.6488 111.302 57.5047 110.119 60.4825 110.119H144V132.723Z" fill="black"/>
<path d="M143.981 88.6571C143.981 94.8581 138.954 99.885 132.753 99.885H66.0645L96.6082 69.3417C98.7138 67.2361 101.57 66.0532 104.547 66.0532H143.981V88.6571Z" fill="black"/>
<path d="M132.768 55.8042C138.969 55.8042 143.996 50.7772 143.996 44.5762V21.9722L110.164 55.8042H132.768Z" fill="black"/>
</g>
<defs>
<filter id="filter0_d_1459_13680" x="0" y="0" width="172" height="172" filterUnits="userSpaceOnUse" color-interpolation-filters="sRGB">
<feFlood flood-opacity="0" result="BackgroundImageFix"/>
<feColorMatrix in="SourceAlpha" type="matrix" values="0 0 0 0 0 0 0 0 0 0 0 0 0 0 0 0 0 0 127 0" result="hardAlpha"/>
<feOffset dx="3" dy="3"/>
<feGaussianBlur stdDeviation="2"/>
<feComposite in2="hardAlpha" operator="out"/>
<feColorMatrix type="matrix" values="0 0 0 0 0 0 0 0 0 0 0 0 0 0 0 0 0 0 0.25 0"/>
<feBlend mode="normal" in2="BackgroundImageFix" result="effect1_dropShadow_1459_13680"/>
<feBlend mode="normal" in="SourceGraphic" in2="effect1_dropShadow_1459_13680" result="shape"/>
</filter>
<linearGradient id="paint0_linear_1459_13680" x1="83" y1="63.5" x2="83" y2="165" gradientUnits="userSpaceOnUse">
<stop stop-color="white"/>
<stop offset="1" stop-color="#B7E0ED"/>
</linearGradient>
</defs>
</svg>
