<svg width="215" height="215" viewBox="0 0 215 215" fill="none" xmlns="http://www.w3.org/2000/svg">
<rect width="214.193" height="214.193" rx="21.9311" fill="black"/>
<path d="M191.339 144.473V172.909C191.339 182.964 183.166 191.121 173.084 191.121H27.8735C23.4026 191.121 21.1615 185.726 24.3237 182.572L58.3615 148.629C61.0294 145.968 64.6523 144.473 68.4268 144.473H191.35H191.339Z" fill="#FBFBF5"/>
<path d="M191.341 80.2397V108.67C191.341 118.726 183.168 126.882 173.081 126.882H80.1621L122.765 84.3965C125.433 81.7355 129.051 80.2397 132.825 80.2397H191.346H191.341Z" fill="#FBFBF5"/>
<path d="M191.341 28.0889V44.4413C191.341 54.497 183.169 62.6536 173.081 62.6536H144.564L182.77 24.5484C185.932 21.3944 191.341 23.6296 191.341 28.0889Z" fill="#FBFBF5"/>
</svg>
