<svg width="14" height="14" viewBox="0 0 14 14" fill="none" xmlns="http://www.w3.org/2000/svg">
<path d="M1.96875 1.53125C1.96875 1.16758 2.26133 0.875 2.625 0.875H3.9375H4.375H7.76563C9.63867 0.875 11.1563 2.39258 11.1563 4.26563C11.1563 5.21445 10.7652 6.07578 10.1363 6.69102C11.2574 7.24336 12.0313 8.39727 12.0313 9.73438C12.0313 11.6074 10.5137 13.125 8.64063 13.125H4.375H3.9375H2.625C2.26133 13.125 1.96875 12.8324 1.96875 12.4688C1.96875 12.1051 2.26133 11.8125 2.625 11.8125H3.28125V7V2.1875H2.625C2.26133 2.1875 1.96875 1.89492 1.96875 1.53125ZM7.76563 6.34375C8.91406 6.34375 9.84375 5.41406 9.84375 4.26563C9.84375 3.11719 8.91406 2.1875 7.76563 2.1875H4.59375V6.34375H7.76563ZM4.59375 7.65625V11.8125H8.64063C9.78906 11.8125 10.7188 10.8828 10.7188 9.73438C10.7188 8.58594 9.78906 7.65625 8.64063 7.65625H7.76563H4.59375Z" fill="#6B6F76"/>
</svg>
