<svg width="11" height="12" viewBox="0 0 11 12" fill="none" xmlns="http://www.w3.org/2000/svg">
<g clip-path="url(#clip0_1452_27986)">
<path d="M2.8125 0C3.12422 0 3.375 0.250781 3.375 0.5625V1.5H7.125V0.5625C7.125 0.250781 7.37578 0 7.6875 0C7.99922 0 8.25 0.250781 8.25 0.5625V1.5H9C9.82734 1.5 10.5 2.17266 10.5 3V9.75C10.5 10.5773 9.82734 11.25 9 11.25H1.5C0.672656 11.25 0 10.5773 0 9.75V3C0 2.17266 0.672656 1.5 1.5 1.5H2.25V0.5625C2.25 0.250781 2.50078 0 2.8125 0ZM2.8125 2.625H1.5C1.29375 2.625 1.125 2.79375 1.125 3V4.125H9.375V3C9.375 2.79375 9.20625 2.625 9 2.625H2.8125ZM1.125 5.25V9.75C1.125 9.95625 1.29375 10.125 1.5 10.125H9C9.20625 10.125 9.375 9.95625 9.375 9.75V5.25H1.125Z" fill="#90959D"/>
</g>
<defs>
<clipPath id="clip0_1452_27986">
<rect width="10.5" height="12" fill="white"/>
</clipPath>
</defs>
</svg>
