<svg width="15" height="20" viewBox="0 0 15 20" fill="none" xmlns="http://www.w3.org/2000/svg">
<g clip-path="url(#clip0_1447_26521)">
<path d="M6.875 1.875H2.5C2.15625 1.875 1.875 2.15625 1.875 2.5V17.5C1.875 17.8438 2.15625 18.125 2.5 18.125H12.5C12.8438 18.125 13.125 17.8438 13.125 17.5V8.125H9.6875C8.13281 8.125 6.875 6.86719 6.875 5.3125V1.875ZM12.3477 6.25L8.75 2.65234V5.3125C8.75 5.83203 9.16797 6.25 9.6875 6.25H12.3477ZM0 2.5C0 1.12109 1.12109 0 2.5 0H7.71484C8.37891 0 9.01563 0.261719 9.48438 0.730469L14.2695 5.51953C14.7383 5.98828 15 6.625 15 7.28906V17.5C15 18.8789 13.8789 20 12.5 20H2.5C1.12109 20 0 18.8789 0 17.5V2.5Z" fill="black"/>
</g>
<defs>
<clipPath id="clip0_1447_26521">
<rect width="15" height="20" fill="white"/>
</clipPath>
</defs>
</svg>
