<svg width="16" height="16" viewBox="0 0 16 16" fill="none" xmlns="http://www.w3.org/2000/svg">
<path d="M7.17266 2.76106C7.47734 2.822 7.67422 3.11731 7.61328 3.422L7.26172 5.18685H9.86328L10.2594 3.20169C10.3203 2.897 10.6156 2.70013 10.9203 2.76106C11.225 2.822 11.4219 3.11731 11.3609 3.422L11.0117 5.18685H12.6875C12.9992 5.18685 13.25 5.43763 13.25 5.74935C13.25 6.06106 12.9992 6.31185 12.6875 6.31185H10.7867L10.1117 9.68684H11.9375C12.2492 9.68684 12.5 9.93763 12.5 10.2493C12.5 10.5611 12.2492 10.8118 11.9375 10.8118H9.88672L9.49063 12.797C9.42969 13.1017 9.13437 13.2986 8.82969 13.2376C8.525 13.1767 8.32813 12.8814 8.38906 12.5767L8.73828 10.8118H6.13672L5.74062 12.797C5.67969 13.1017 5.38438 13.2986 5.07969 13.2376C4.775 13.1767 4.57812 12.8814 4.63906 12.5767L4.98828 10.8118H3.3125C3.00078 10.8118 2.75 10.5611 2.75 10.2493C2.75 9.93763 3.00078 9.68684 3.3125 9.68684H5.21328L5.88828 6.31185H4.0625C3.75078 6.31185 3.5 6.06106 3.5 5.74935C3.5 5.43763 3.75078 5.18685 4.0625 5.18685H6.11328L6.50937 3.20169C6.57031 2.897 6.86563 2.70013 7.17031 2.76106H7.17266ZM7.03672 6.31185L6.36172 9.68684H8.96328L9.63828 6.31185H7.03672Z" fill="#90959D"/>
</svg>
