<svg width="20" height="20" viewBox="0 0 20 20" fill="none" xmlns="http://www.w3.org/2000/svg">
<g clip-path="url(#clip0_1447_26516)">
<path d="M9.37496 0.238281C9.73043 -0.0820313 10.2695 -0.0820313 10.625 0.238281L19.6875 8.36328C20.0742 8.70703 20.1054 9.30078 19.7578 9.6875C19.4101 10.0742 18.8203 10.1055 18.4336 9.75781L18.1211 9.47656V17.4961C18.1211 18.875 17 19.9961 15.6211 19.9961H4.37105C2.99215 19.9961 1.87105 18.875 1.87105 17.4961V9.47656L1.55855 9.75781C1.17184 10.1016 0.581992 10.0703 0.234336 9.6875C-0.11332 9.30469 -0.0781639 8.71094 0.304649 8.36328L9.37496 0.238281ZM9.99996 2.19531L3.74996 7.80078V17.5C3.74996 17.8437 4.03121 18.125 4.37496 18.125H6.24996V14.0625C6.24996 12.5078 7.50777 11.25 9.06246 11.25H10.9375C12.4921 11.25 13.75 12.5078 13.75 14.0625V18.125H15.625C15.9687 18.125 16.25 17.8437 16.25 17.5V7.80078L9.99996 2.19922V2.19531ZM8.12496 18.125H11.875V14.0625C11.875 13.543 11.457 13.125 10.9375 13.125H9.06246C8.54293 13.125 8.12496 13.543 8.12496 14.0625V18.125Z" fill="black"/>
</g>
<defs>
<clipPath id="clip0_1447_26516">
<rect width="20" height="20" fill="white"/>
</clipPath>
</defs>
</svg>
