<svg width="12" height="12" viewBox="0 0 12 12" fill="none" xmlns="http://www.w3.org/2000/svg">
<path d="M8.0625 1.5H9C9.82734 1.5 10.5 2.17266 10.5 3V10.5C10.5 11.3273 9.82734 12 9 12H3C2.17266 12 1.5 11.3273 1.5 10.5V3C1.5 2.17266 2.17266 1.5 3 1.5H3.9375H4.1625C4.33594 0.644531 5.09297 0 6 0C6.90703 0 7.66406 0.644531 7.8375 1.5H8.0625ZM3 2.625C2.79375 2.625 2.625 2.79375 2.625 3V10.5C2.625 10.7063 2.79375 10.875 3 10.875H9C9.20625 10.875 9.375 10.7063 9.375 10.5V3C9.375 2.79375 9.20625 2.625 9 2.625H8.625V3.1875C8.625 3.49922 8.37422 3.75 8.0625 3.75H6H3.9375C3.62578 3.75 3.375 3.49922 3.375 3.1875V2.625H3ZM6 2.4375C6.14918 2.4375 6.29226 2.37824 6.39775 2.27275C6.50324 2.16726 6.5625 2.02418 6.5625 1.875C6.5625 1.72582 6.50324 1.58274 6.39775 1.47725C6.29226 1.37176 6.14918 1.3125 6 1.3125C5.85082 1.3125 5.70774 1.37176 5.60225 1.47725C5.49676 1.58274 5.4375 1.72582 5.4375 1.875C5.4375 2.02418 5.49676 2.16726 5.60225 2.27275C5.70774 2.37824 5.85082 2.4375 6 2.4375Z" fill="black"/>
</svg>
