<svg width="16" height="16" viewBox="0 0 16 16" fill="none" xmlns="http://www.w3.org/2000/svg">
<path d="M2.7998 13.2998H8.2998V10.5498C8.2998 9.30605 9.30605 8.2998 10.5498 8.2998H13.2998V2.7998C13.2998 2.5248 13.0748 2.2998 12.7998 2.2998H2.7998C2.5248 2.2998 2.2998 2.5248 2.2998 2.7998V12.7998C2.2998 13.0748 2.5248 13.2998 2.7998 13.2998ZM9.7998 12.6779L12.6779 9.7998H10.5498C10.1342 9.7998 9.7998 10.1342 9.7998 10.5498V12.6779ZM2.7998 14.7998C1.69668 14.7998 0.799805 13.9029 0.799805 12.7998V2.7998C0.799805 1.69668 1.69668 0.799805 2.7998 0.799805H12.7998C13.9029 0.799805 14.7998 1.69668 14.7998 2.7998V8.97168C14.7998 9.50293 14.5904 10.0123 14.2154 10.3873L10.3842 14.2154C10.0092 14.5904 9.4998 14.7998 8.96855 14.7998H2.7998ZM3.4248 11.2998C3.4248 11.0677 3.51699 10.8452 3.68109 10.6811C3.84518 10.517 4.06774 10.4248 4.2998 10.4248C4.53187 10.4248 4.75443 10.517 4.91852 10.6811C5.08262 10.8452 5.1748 11.0677 5.1748 11.2998C5.1748 11.5319 5.08262 11.7544 4.91852 11.9185C4.75443 12.0826 4.53187 12.1748 4.2998 12.1748C4.06774 12.1748 3.84518 12.0826 3.68109 11.9185C3.51699 11.7544 3.4248 11.5319 3.4248 11.2998ZM4.2998 5.1748C4.06774 5.1748 3.84518 5.08262 3.68109 4.91852C3.51699 4.75443 3.4248 4.53187 3.4248 4.2998C3.4248 4.06774 3.51699 3.84518 3.68109 3.68109C3.84518 3.51699 4.06774 3.4248 4.2998 3.4248C4.53187 3.4248 4.75443 3.51699 4.91852 3.68109C5.08262 3.84518 5.1748 4.06774 5.1748 4.2998C5.1748 4.53187 5.08262 4.75443 4.91852 4.91852C4.75443 5.08262 4.53187 5.1748 4.2998 5.1748ZM3.4248 7.7998C3.4248 7.56774 3.51699 7.34518 3.68109 7.18109C3.84518 7.01699 4.06774 6.9248 4.2998 6.9248C4.53187 6.9248 4.75443 7.01699 4.91852 7.18109C5.08262 7.34518 5.1748 7.56774 5.1748 7.7998C5.1748 8.03187 5.08262 8.25443 4.91852 8.41852C4.75443 8.58262 4.53187 8.6748 4.2998 8.6748C4.06774 8.6748 3.84518 8.58262 3.68109 8.41852C3.51699 8.25443 3.4248 8.03187 3.4248 7.7998Z" fill="#6B6F76"/>
</svg>
