<svg width="28" height="28" viewBox="0 0 28 28" fill="none" xmlns="http://www.w3.org/2000/svg">
<path d="M0 6C0 2.68629 2.68629 0 6 0H22C25.3137 0 28 2.68629 28 6V22C28 25.3137 25.3137 28 22 28H6C2.68629 28 0 25.3137 0 22V6Z" fill="white"/>
<path d="M18.4047 9.04305C17.6954 8.33347 16.547 8.33347 15.8377 9.04305L10.6027 14.283C9.41061 15.4729 9.41061 17.4051 10.6027 18.595C11.7949 19.785 13.7235 19.785 14.9156 18.595L19.0594 14.4468C19.3159 14.1902 19.7305 14.1902 19.9842 14.4468C20.2379 14.7033 20.2406 15.1181 19.9842 15.3719L15.8404 19.523C14.1382 21.2259 11.3802 21.2259 9.67796 19.523C7.9757 17.82 7.97298 15.0581 9.67523 13.3551L14.9129 8.11514C16.1323 6.89521 18.1128 6.89521 19.3322 8.11514C20.5516 9.33507 20.5516 11.3137 19.3322 12.5336L14.3182 17.5498C13.4562 18.4122 12.0376 18.333 11.2765 17.3806C10.6273 16.5673 10.69 15.3938 11.4266 14.6569L15.5676 10.5168C15.8241 10.2602 16.2387 10.2602 16.4924 10.5168C16.7461 10.7733 16.7488 11.1882 16.4924 11.442L12.3541 15.5848C12.0895 15.8495 12.0649 16.2698 12.2995 16.5618C12.5723 16.903 13.0825 16.933 13.3907 16.6219L18.4047 11.6084C19.114 10.8989 19.114 9.7499 18.4047 9.04032V9.04305Z" fill="#6B6F76"/>
</svg>
