<svg width="16" height="16" viewBox="0 0 16 16" fill="none" xmlns="http://www.w3.org/2000/svg">
<path d="M7.49609 2.86719C7.89453 2.86719 8.27656 3.02422 8.55781 3.30547L12.6828 7.43047C13.2688 8.01641 13.2688 8.96562 12.6828 9.55156L9.55391 12.6805C8.96797 13.2664 8.01875 13.2664 7.43281 12.6805L3.30781 8.55547C3.02422 8.27422 2.86719 7.89453 2.86719 7.49609V3.99219C2.86719 3.37109 3.37109 2.86719 3.99219 2.86719H7.49609ZM3.99219 7.49609C3.99219 7.59453 4.03203 7.69062 4.10234 7.76094L8.22734 11.8859C8.37266 12.0312 8.61172 12.0312 8.75703 11.8859L11.8859 8.75703C12.0313 8.61172 12.0313 8.37266 11.8859 8.22734L7.76094 4.10234C7.69063 4.03203 7.59453 3.99219 7.49609 3.99219H3.99219V7.49609ZM5.49219 4.74219C5.6911 4.74219 5.88187 4.8212 6.02252 4.96186C6.16317 5.10251 6.24219 5.29327 6.24219 5.49219C6.24219 5.6911 6.16317 5.88186 6.02252 6.02252C5.88187 6.16317 5.6911 6.24219 5.49219 6.24219C5.29328 6.24219 5.10251 6.16317 4.96186 6.02252C4.82121 5.88186 4.74219 5.6911 4.74219 5.49219C4.74219 5.29327 4.82121 5.10251 4.96186 4.96186C5.10251 4.8212 5.29328 4.74219 5.49219 4.74219Z" fill="#90959D"/>
</svg>
