<svg width="16" height="16" viewBox="0 0 16 16" fill="none" xmlns="http://www.w3.org/2000/svg">
<g clip-path="url(#clip0_1452_27976)">
<path d="M2.28571 1.71429C1.97143 1.71429 1.71429 1.97143 1.71429 2.28571V13.7143C1.71429 14.0286 1.97143 14.2857 2.28571 14.2857H10.2857V11.4286C10.2857 10.7964 10.7964 10.2857 11.4286 10.2857H14.2857V2.28571C14.2857 1.97143 14.0286 1.71429 13.7143 1.71429H2.28571ZM10.2857 16H2.28571C1.025 16 0 14.975 0 13.7143V2.28571C0 1.025 1.025 0 2.28571 0H13.7143C14.975 0 16 1.025 16 2.28571V10.2857V10.4821C16 11.0893 15.7607 11.6714 15.3321 12.1L12.1 15.3321C11.6714 15.7607 11.0893 16 10.4821 16H10.2857Z" fill="#212B36"/>
</g>
<defs>
<clipPath id="clip0_1452_27976">
<rect width="16" height="16" fill="white"/>
</clipPath>
</defs>
</svg>
