<svg width="16" height="16" viewBox="0 0 16 16" fill="none" xmlns="http://www.w3.org/2000/svg">
<path d="M10.8078 8.44974C10.4234 8.28567 9.97813 8.39349 9.71328 8.71692L8.93516 9.66849C7.85703 9.04271 6.95703 8.14271 6.33125 7.06458L7.28047 6.2888C7.60391 6.02396 7.71406 5.57864 7.54766 5.19427L6.42266 2.56927C6.24687 2.15677 5.80391 1.92708 5.36563 2.02083L2.74063 2.58333C2.30938 2.67474 2 3.05677 2 3.49974C2 8.91849 6.10625 13.381 11.3773 13.9411C11.607 13.9646 11.8367 13.9833 12.0711 13.9927H12.0734C12.2164 13.9974 12.357 14.0021 12.5 14.0021C12.943 14.0021 13.325 13.6927 13.4164 13.2615L13.9789 10.6365C14.0727 10.1982 13.843 9.75521 13.4305 9.57942L10.8055 8.45442L10.8078 8.44974ZM12.3477 12.8747C7.29219 12.7927 3.20703 8.70755 3.12734 3.65208L5.45234 3.15286L6.46016 5.50599L5.61875 6.19505C5.19219 6.54427 5.08203 7.1513 5.35859 7.62942C6.08281 8.87864 7.12344 9.91927 8.37266 10.6435C8.85078 10.92 9.45781 10.8099 9.80703 10.3833L10.4961 9.54192L12.8492 10.5497L12.3477 12.8747Z" fill="#90959D"/>
</svg>
