<svg width="12" height="12" viewBox="0 0 12 12" fill="none" xmlns="http://www.w3.org/2000/svg">
<path d="M3.3 3.60005C3.3 3.10317 3.70313 2.70005 4.2 2.70005C4.69688 2.70005 5.1 3.10317 5.1 3.60005V3.74817C5.1 4.2638 5.05688 4.77942 4.96875 5.28755L2.9625 5.90817C2.27063 6.12192 1.8 6.7613 1.8 7.48505V8.10005H0.45C0.200625 8.10005 0 8.30067 0 8.55005C0 8.79942 0.200625 9.00005 0.45 9.00005H1.80563C1.86188 9.6713 2.42625 10.2 3.1125 10.2C3.57375 10.2 4.00125 9.95817 4.2375 9.56255L4.53563 9.06755C5.09063 8.1413 5.49375 7.13067 5.72813 6.07692L5.74688 5.9888L7.82438 5.34567L7.37625 6.59817C7.3275 6.73692 7.34813 6.8888 7.4325 7.0088C7.51688 7.1288 7.65375 7.20005 7.8 7.20005H10.35C10.5994 7.20005 10.8 6.99942 10.8 6.75005C10.8 6.50067 10.5994 6.30005 10.35 6.30005H8.43938L8.97375 4.80192C9.03188 4.64067 8.9925 4.46255 8.87438 4.3388C8.75625 4.21505 8.58 4.17005 8.41688 4.22067L5.92313 4.99317C5.97375 4.58067 6 4.16442 6 3.74817V3.60005C6 2.6063 5.19375 1.80005 4.2 1.80005C3.20625 1.80005 2.4 2.6063 2.4 3.60005V4.35005C2.4 4.59942 2.60063 4.80005 2.85 4.80005C3.09938 4.80005 3.3 4.59942 3.3 4.35005V3.60005ZM3.22875 6.7688L4.74563 6.30005C4.52625 7.11005 4.19438 7.88442 3.76313 8.6063L3.465 9.1013C3.39 9.22505 3.25688 9.30192 3.1125 9.30192C2.88563 9.30192 2.7 9.11817 2.7 8.88942V7.48692C2.7 7.1588 2.91375 6.86817 3.22875 6.77067V6.7688ZM5.60438 9.00005H11.55C11.7994 9.00005 12 8.79942 12 8.55005C12 8.30067 11.7994 8.10005 11.55 8.10005H6.02813C5.90063 8.40567 5.76 8.70567 5.60438 9.00005Z" fill="black"/>
</svg>
