<svg width="12" height="24" viewBox="0 0 12 24" fill="none" xmlns="http://www.w3.org/2000/svg">
<path d="M10.875 12C10.875 13.2929 10.3614 14.5329 9.44715 15.4471C8.53291 16.3614 7.29293 16.875 6 16.875C4.70707 16.875 3.46709 16.3614 2.55285 15.4471C1.63861 14.5329 1.125 13.2929 1.125 12C1.125 10.7071 1.63861 9.46709 2.55285 8.55285C3.46709 7.63861 4.70707 7.125 6 7.125C7.29293 7.125 8.53291 7.63861 9.44715 8.55285C10.3614 9.46709 10.875 10.7071 10.875 12ZM0 12C0 13.5913 0.632141 15.1174 1.75736 16.2426C2.88258 17.3679 4.4087 18 6 18C7.5913 18 9.11742 17.3679 10.2426 16.2426C11.3679 15.1174 12 13.5913 12 12C12 10.4087 11.3679 8.88258 10.2426 7.75736C9.11742 6.63214 7.5913 6 6 6C4.4087 6 2.88258 6.63214 1.75736 7.75736C0.632141 8.88258 0 10.4087 0 12ZM5.4375 8.8125V12C5.4375 12.1875 5.53125 12.3633 5.68828 12.4688L7.93828 13.9688C8.19609 14.1422 8.54531 14.0719 8.71875 13.8117C8.89219 13.5516 8.82187 13.2047 8.56172 13.0312L6.5625 11.7V8.8125C6.5625 8.50078 6.31172 8.25 6 8.25C5.68828 8.25 5.4375 8.50078 5.4375 8.8125Z" fill="#212B36"/>
</svg>
