<svg width="28" height="28" viewBox="0 0 28 28" fill="none" xmlns="http://www.w3.org/2000/svg">
<path d="M0 6C0 2.68629 2.68629 0 6 0H22C25.3137 0 28 2.68629 28 6V22C28 25.3137 25.3137 28 22 28H6C2.68629 28 0 25.3137 0 22V6Z" fill="#EFF1F4"/>
<path d="M7.89331 7.08103C7.50894 6.9154 7.05894 7.00915 6.77144 7.31228C6.48394 7.6154 6.41831 8.07165 6.60581 8.44665L9.38081 13.9998L6.60581 19.5529C6.41831 19.9279 6.48394 20.381 6.77144 20.6873C7.05894 20.9935 7.50581 21.0842 7.89331 20.9217L21.8933 14.9217C22.2621 14.7654 22.4996 14.4029 22.4996 14.0029C22.4996 13.6029 22.2621 13.2404 21.8933 13.0842L7.89331 7.08415V7.08103Z" fill="#C9CBCD"/>
</svg>
