<svg width="12" height="12" viewBox="0 0 12 12" fill="none" xmlns="http://www.w3.org/2000/svg">
<path d="M3.75 8.62524C4.37109 8.62524 4.875 9.12915 4.875 9.75024V10.1252L6.57422 8.85024C6.76875 8.70493 7.00547 8.62524 7.24922 8.62524H10.5C10.7063 8.62524 10.875 8.45649 10.875 8.25024V1.50024C10.875 1.29399 10.7063 1.12524 10.5 1.12524H1.5C1.29375 1.12524 1.125 1.29399 1.125 1.50024V8.25024C1.125 8.45649 1.29375 8.62524 1.5 8.62524H3.75ZM4.875 11.5315L4.87031 11.5362L4.75078 11.6252L4.35 11.9252C4.2375 12.0096 4.08516 12.0237 3.95625 11.9604C3.82734 11.8971 3.75 11.7682 3.75 11.6252V11.126V10.976V10.969V10.8752V9.75024H2.625H1.5C0.672656 9.75024 0 9.07759 0 8.25024V1.50024C0 0.6729 0.672656 0.000244141 1.5 0.000244141H10.5C11.3273 0.000244141 12 0.6729 12 1.50024V8.25024C12 9.07759 11.3273 9.75024 10.5 9.75024H7.24922L4.875 11.5315Z" fill="black"/>
</svg>
