<svg width="12" height="12" viewBox="0 0 12 12" fill="none" xmlns="http://www.w3.org/2000/svg">
<path d="M3.60586 1.68995C3.81445 1.45792 3.7957 1.10401 3.56367 0.895418C3.33164 0.686825 2.97773 0.705575 2.76914 0.937606L1.48008 2.36964L0.962109 1.85167C0.741797 1.6337 0.385547 1.6337 0.165234 1.85167C-0.0550781 2.06964 -0.0550781 2.42823 0.165234 2.6462L1.10273 3.5837C1.21289 3.69386 1.36055 3.75245 1.51523 3.74776C1.66992 3.74308 1.81523 3.67745 1.91836 3.56261L3.60586 1.68761V1.68995ZM3.60586 5.43995C3.81445 5.20792 3.7957 4.85401 3.56367 4.64542C3.33164 4.43683 2.97773 4.45558 2.76914 4.68761L1.48008 6.11964L0.962109 5.60167C0.741797 5.38136 0.385547 5.38136 0.167578 5.60167C-0.0503906 5.82198 -0.0527344 6.17823 0.167578 6.3962L1.10508 7.3337C1.21523 7.44386 1.36289 7.50245 1.51758 7.49776C1.67227 7.49308 1.81758 7.42745 1.9207 7.31261L3.6082 5.43761L3.60586 5.43995ZM5.06367 2.81261H11.4387C11.7504 2.81261 12.0012 2.56182 12.0012 2.25011C12.0012 1.93839 11.7504 1.68761 11.4387 1.68761H5.06367C4.75195 1.68761 4.50117 1.93839 4.50117 2.25011C4.50117 2.56182 4.75195 2.81261 5.06367 2.81261ZM4.50117 6.00011C4.50117 6.31183 4.75195 6.56261 5.06367 6.56261H11.4387C11.7504 6.56261 12.0012 6.31183 12.0012 6.00011C12.0012 5.68839 11.7504 5.43761 11.4387 5.43761H5.06367C4.75195 5.43761 4.50117 5.68839 4.50117 6.00011ZM3.75117 9.75011C3.75117 10.0618 4.00195 10.3126 4.31367 10.3126H11.4387C11.7504 10.3126 12.0012 10.0618 12.0012 9.75011C12.0012 9.43839 11.7504 9.18761 11.4387 9.18761H4.31367C4.00195 9.18761 3.75117 9.43839 3.75117 9.75011ZM2.25117 9.75011C2.25117 9.55119 2.17215 9.36043 2.0315 9.21978C1.89085 9.07912 1.70008 9.00011 1.50117 9.00011C1.30226 9.00011 1.11149 9.07912 0.970842 9.21978C0.830189 9.36043 0.751172 9.55119 0.751172 9.75011C0.751172 9.94902 0.830189 10.1398 0.970842 10.2804C1.11149 10.4211 1.30226 10.5001 1.50117 10.5001C1.70008 10.5001 1.89085 10.4211 2.0315 10.2804C2.17215 10.1398 2.25117 9.94902 2.25117 9.75011Z" fill="black"/>
</svg>
