<svg width="12" height="12" viewBox="0 0 12 12" fill="none" xmlns="http://www.w3.org/2000/svg">
<path d="M8.62744 6C8.62744 6.62175 9.13442 7.125 9.75615 7.125C10.3779 7.125 10.8811 6.62175 10.8811 6C10.8811 5.37825 10.3779 4.875 9.75615 4.875H9.74864C9.12767 4.875 8.62744 5.37825 8.62744 6Z" fill="black"/>
<path d="M4.87378 6C4.87378 6.62175 5.38076 7.125 6.00249 7.125C6.62421 7.125 7.12744 6.62175 7.12744 6C7.12744 5.37825 6.62421 4.875 6.00249 4.875H5.99498C5.37401 4.875 4.87378 5.37825 4.87378 6Z" fill="black"/>
<path d="M1.12036 6C1.12036 6.62175 1.62734 7.125 2.24907 7.125C2.87079 7.125 3.37402 6.62175 3.37402 6C3.37402 5.37825 2.87079 4.875 2.24907 4.875H2.24156C1.62059 4.875 1.12036 5.37825 1.12036 6Z" fill="black"/>
</svg>
