<svg width="16" height="16" viewBox="0 0 16 16" fill="none" xmlns="http://www.w3.org/2000/svg">
<path d="M3.5 4.625C3.29375 4.625 3.125 4.79375 3.125 5V5.51797L7.16797 8.83672C7.65313 9.23516 8.34922 9.23516 8.83438 8.83672L12.875 5.51797V5C12.875 4.79375 12.7063 4.625 12.5 4.625H3.5ZM3.125 6.97344V11C3.125 11.2063 3.29375 11.375 3.5 11.375H12.5C12.7063 11.375 12.875 11.2063 12.875 11V6.97344L9.54688 9.70625C8.64687 10.4445 7.35078 10.4445 6.45312 9.70625L3.125 6.97344ZM2 5C2 4.17266 2.67266 3.5 3.5 3.5H12.5C13.3273 3.5 14 4.17266 14 5V11C14 11.8273 13.3273 12.5 12.5 12.5H3.5C2.67266 12.5 2 11.8273 2 11V5Z" fill="#90959D"/>
</svg>
