<svg width="12" height="12" viewBox="0 0 12 12" fill="none" xmlns="http://www.w3.org/2000/svg">
<path d="M6.4126 1.3125C6.4126 1.00078 6.16182 0.75 5.8501 0.75C5.53838 0.75 5.2876 1.00078 5.2876 1.3125V5.4375H1.1626C0.850879 5.4375 0.600098 5.68828 0.600098 6C0.600098 6.31172 0.850879 6.5625 1.1626 6.5625H5.2876V10.6875C5.2876 10.9992 5.53838 11.25 5.8501 11.25C6.16182 11.25 6.4126 10.9992 6.4126 10.6875V6.5625H10.5376C10.8493 6.5625 11.1001 6.31172 11.1001 6C11.1001 5.68828 10.8493 5.4375 10.5376 5.4375H6.4126V1.3125Z" fill="#212B36"/>
</svg>
