<svg width="12" height="12" viewBox="0 0 12 12" fill="none" xmlns="http://www.w3.org/2000/svg">
<path fill-rule="evenodd" clip-rule="evenodd" d="M0.289126 2.08454C1.09222 1.55098 2.15456 1.23901 3.29957 1.23901C4.30257 1.23901 5.24214 1.47839 5.99958 1.89641C6.75702 1.47839 7.69658 1.23901 8.69957 1.23901C9.84522 1.23901 10.907 1.551 11.71 2.08454C11.8665 2.18851 11.9606 2.36393 11.9606 2.55181V10.3518C11.9606 10.5585 11.8469 10.7485 11.6647 10.8462C11.4825 10.9439 11.2613 10.9335 11.0891 10.8191C10.4906 10.4214 9.65033 10.161 8.69957 10.161C7.74938 10.161 6.90853 10.4214 6.31002 10.8191C6.12192 10.9441 5.87723 10.9441 5.68913 10.8191C5.09062 10.4214 4.24976 10.161 3.29957 10.161C2.34938 10.161 1.50853 10.4214 0.910022 10.8191C0.737827 10.9335 0.516666 10.9439 0.334471 10.8462C0.152275 10.7485 0.0385742 10.5585 0.0385742 10.3518V2.55181C0.0385742 2.36393 0.13263 2.18851 0.289126 2.08454ZM1.16057 2.86843V9.43274C1.80087 9.17934 2.53163 9.03901 3.29957 9.03901C4.30257 9.03901 5.24214 9.27839 5.99958 9.69641C6.75702 9.27839 7.69658 9.03901 8.69957 9.03901C9.46788 9.03901 10.1985 9.17933 10.8386 9.43269V2.86842C10.2658 2.55694 9.52425 2.36101 8.69957 2.36101C7.74938 2.36101 6.90853 2.62145 6.31002 3.01909C6.12192 3.14406 5.87723 3.14406 5.68913 3.01909C5.09062 2.62145 4.24976 2.36101 3.29957 2.36101C2.47538 2.36101 1.73344 2.55696 1.16057 2.86843Z" fill="black"/>
<path fill-rule="evenodd" clip-rule="evenodd" d="M6.00075 2.3063C6.31058 2.3063 6.56175 2.55747 6.56175 2.8673L6.56175 9.66835C6.56175 9.97818 6.31058 10.2293 6.00075 10.2293C5.69091 10.2293 5.43975 9.97818 5.43975 9.66835L5.43975 2.8673C5.43975 2.55747 5.69091 2.3063 6.00075 2.3063Z" fill="black"/>
</svg>
