<svg width="12" height="12" viewBox="0 0 12 12" fill="none" xmlns="http://www.w3.org/2000/svg">
<path d="M10.6667 2.33325C10.85 2.33325 11 2.48325 11 2.66659V3.33325H1V2.66659C1 2.48325 1.15 2.33325 1.33333 2.33325H10.6667ZM11 4.49995V9.33325C11 9.51659 10.85 9.66659 10.6667 9.66659H1.33333C1.15 9.66659 1 9.51659 1 9.33325V4.49995L6 4.49995L11 4.49995ZM1.33333 1.33325C0.597917 1.33325 0 1.93117 0 2.66659V9.33325C0 10.0687 0.597917 10.6666 1.33333 10.6666H10.6667C11.4021 10.6666 12 10.0687 12 9.33325V2.66659C12 1.93117 11.4021 1.33325 10.6667 1.33325H1.33333ZM2.5 7.66659C2.22292 7.66659 2 7.8895 2 8.16659C2 8.44367 2.22292 8.66659 2.5 8.66659H3.5C3.77708 8.66659 4 8.44367 4 8.16659C4 7.8895 3.77708 7.66659 3.5 7.66659H2.5Z" fill="black"/>
</svg>
