<svg width="14" height="14" viewBox="0 0 14 14" fill="none" xmlns="http://www.w3.org/2000/svg">
<path d="M7 12.6875C7.20234 12.6875 7.73828 12.4906 8.30156 11.3641C8.54219 10.8801 8.75 10.2922 8.90313 9.625H5.09687C5.25 10.2922 5.45781 10.8801 5.69844 11.3641C6.26172 12.4906 6.79766 12.6875 7 12.6875ZM4.88086 8.3125H9.11914C9.16289 7.89414 9.1875 7.45391 9.1875 7C9.1875 6.54609 9.16289 6.10586 9.11914 5.6875H4.88086C4.83711 6.10586 4.8125 6.54609 4.8125 7C4.8125 7.45391 4.83711 7.89414 4.88086 8.3125ZM5.09687 4.375H8.90313C8.75 3.70781 8.54219 3.11992 8.30156 2.63594C7.73828 1.50938 7.20234 1.3125 7 1.3125C6.79766 1.3125 6.26172 1.50938 5.69844 2.63594C5.45781 3.11992 5.25 3.70781 5.09687 4.375ZM10.4371 5.6875C10.4781 6.11133 10.4973 6.55156 10.4973 7C10.4973 7.44844 10.4754 7.88867 10.4371 8.3125H12.5344C12.6328 7.89141 12.6875 7.45117 12.6875 7C12.6875 6.54883 12.6355 6.10859 12.5344 5.6875H10.4371ZM12.0449 4.375C11.4598 3.25117 10.5109 2.34883 9.3543 1.82109C9.73984 2.52109 10.0461 3.39336 10.2457 4.375H12.0477H12.0449ZM3.75156 4.375C3.95117 3.39336 4.25742 2.52383 4.64297 1.82109C3.48633 2.34883 2.5375 3.25117 1.95234 4.375H3.7543H3.75156ZM1.46562 5.6875C1.36719 6.10859 1.3125 6.54883 1.3125 7C1.3125 7.45117 1.36445 7.89141 1.46562 8.3125H3.56289C3.52188 7.88867 3.50273 7.44844 3.50273 7C3.50273 6.55156 3.52461 6.11133 3.56289 5.6875H1.46562ZM9.3543 12.1789C10.5109 11.6512 11.4598 10.7488 12.0449 9.625H10.243C10.0434 10.6066 9.73711 11.4762 9.35156 12.1789H9.3543ZM4.6457 12.1789C4.26016 11.4789 3.95391 10.6066 3.7543 9.625H1.95234C2.5375 10.7488 3.48633 11.6512 4.64297 12.1789H4.6457ZM7 14C5.14348 14 3.36301 13.2625 2.05025 11.9497C0.737498 10.637 0 8.85652 0 7C0 5.14348 0.737498 3.36301 2.05025 2.05025C3.36301 0.737498 5.14348 0 7 0C8.85652 0 10.637 0.737498 11.9497 2.05025C13.2625 3.36301 14 5.14348 14 7C14 8.85652 13.2625 10.637 11.9497 11.9497C10.637 13.2625 8.85652 14 7 14Z" fill="#212B36"/>
</svg>
