<svg width="16" height="16" viewBox="0 0 16 16" fill="none" xmlns="http://www.w3.org/2000/svg">
<path d="M11.375 6.5C11.375 4.63672 9.86328 3.125 8 3.125C6.13672 3.125 4.625 4.63672 4.625 6.5C4.625 6.79062 4.73047 7.24062 4.98359 7.84062C5.22969 8.42187 5.57891 9.06406 5.97969 9.71328C6.64766 10.7961 7.42109 11.8414 8 12.5867C8.58125 11.8414 9.35469 10.7961 10.0203 9.71328C10.4211 9.06406 10.7703 8.42187 11.0164 7.84062C11.2695 7.24062 11.375 6.79062 11.375 6.5ZM12.5 6.5C12.5 8.54844 9.75781 12.1953 8.55547 13.7C8.26719 14.0586 7.73281 14.0586 7.44453 13.7C6.24219 12.1953 3.5 8.54844 3.5 6.5C3.5 4.01562 5.51562 2 8 2C10.4844 2 12.5 4.01562 12.5 6.5ZM8.75 6.5C8.75 6.30109 8.67098 6.11032 8.53033 5.96967C8.38968 5.82902 8.19891 5.75 8 5.75C7.80109 5.75 7.61032 5.82902 7.46967 5.96967C7.32902 6.11032 7.25 6.30109 7.25 6.5C7.25 6.69891 7.32902 6.88968 7.46967 7.03033C7.61032 7.17098 7.80109 7.25 8 7.25C8.19891 7.25 8.38968 7.17098 8.53033 7.03033C8.67098 6.88968 8.75 6.69891 8.75 6.5ZM6.125 6.5C6.125 6.00272 6.32254 5.52581 6.67417 5.17417C7.02581 4.82254 7.50272 4.625 8 4.625C8.49728 4.625 8.97419 4.82254 9.32583 5.17417C9.67746 5.52581 9.875 6.00272 9.875 6.5C9.875 6.99728 9.67746 7.47419 9.32583 7.82583C8.97419 8.17746 8.49728 8.375 8 8.375C7.50272 8.375 7.02581 8.17746 6.67417 7.82583C6.32254 7.47419 6.125 6.99728 6.125 6.5Z" fill="#90959D"/>
</svg>
