<svg width="14" height="14" viewBox="0 0 14 14" fill="none" xmlns="http://www.w3.org/2000/svg">
<path d="M5.25 1.53125C5.25 1.16758 5.54258 0.875 5.90625 0.875H11.5938C11.9574 0.875 12.25 1.16758 12.25 1.53125C12.25 1.89492 11.9574 2.1875 11.5938 2.1875H9.71523L5.70664 11.8125H8.09375C8.45742 11.8125 8.75 12.1051 8.75 12.4688C8.75 12.8324 8.45742 13.125 8.09375 13.125H2.40625C2.04258 13.125 1.75 12.8324 1.75 12.4688C1.75 12.1051 2.04258 11.8125 2.40625 11.8125H4.28477L8.29336 2.1875H5.90625C5.54258 2.1875 5.25 1.89492 5.25 1.53125Z" fill="#6B6F76"/>
</svg>
