<svg width="24" height="24" viewBox="0 0 24 24" fill="none" xmlns="http://www.w3.org/2000/svg">
<g clip-path="url(#clip0_1447_26502)">
<rect width="24" height="24" rx="4" fill="white"/>
<rect width="23.9994" height="23.9994" fill="white"/>
<path d="M17.5101 14.957H6.4896C5.39725 14.957 4.51172 15.8454 4.51172 16.9413V16.9478C4.51172 18.0436 5.39725 18.932 6.4896 18.932H17.5101C18.6024 18.932 19.4879 18.0436 19.4879 16.9478V16.9413C19.4879 15.8454 18.6024 14.957 17.5101 14.957Z" fill="black"/>
<path d="M13.6904 5.06812H10.3099C9.21756 5.06812 8.33203 5.95649 8.33203 7.05236V7.05885C8.33203 8.15472 9.21756 9.0431 10.3099 9.0431H13.6904C14.7828 9.0431 15.6683 8.15472 15.6683 7.05885V7.05236C15.6683 5.95649 14.7828 5.06812 13.6904 5.06812Z" fill="black"/>
<path d="M15.4172 10.0154H8.58091C7.48856 10.0154 6.60303 10.9038 6.60303 11.9996V12.0061C6.60303 13.102 7.48856 13.9904 8.58091 13.9904H15.4172C16.5095 13.9904 17.395 13.102 17.395 12.0061V11.9996C17.395 10.9038 16.5095 10.0154 15.4172 10.0154Z" fill="black"/>
</g>
<defs>
<clipPath id="clip0_1447_26502">
<rect width="24" height="24" rx="4" fill="white"/>
</clipPath>
</defs>
</svg>
