<svg width="95" height="95" viewBox="0 0 95 95" fill="none" xmlns="http://www.w3.org/2000/svg">
<rect width="94.7685" height="94.7685" rx="20.225" fill="url(#paint0_linear_40000966_741)"/>
<path d="M84.4656 64.2173V76.5103C84.4656 80.8574 80.9327 84.3835 76.5741 84.3835H13.7994C11.8666 84.3835 10.8978 82.0513 12.2648 80.6879L26.9793 66.0143C28.1327 64.8639 29.6989 64.2173 31.3306 64.2173H84.4705H84.4656Z" fill="#FBFBF5"/>
<path d="M84.465 36.4492V48.7398C84.465 53.0869 80.932 56.613 76.5711 56.613H36.4023L54.8198 38.2462C55.9732 37.0958 57.5369 36.4492 59.1686 36.4492H84.4674H84.465Z" fill="#FBFBF5"/>
<path d="M84.4677 13.9045V20.9737C84.4677 25.3208 80.9347 28.847 76.5738 28.847H64.2461L80.7623 12.374C82.1294 11.0105 84.4677 11.9768 84.4677 13.9045Z" fill="#FBFBF5"/>
<defs>
<linearGradient id="paint0_linear_40000966_741" x1="47.3843" y1="0" x2="47.3843" y2="94.7685" gradientUnits="userSpaceOnUse">
<stop stop-color="#101010"/>
<stop offset="1" stop-color="#383838"/>
</linearGradient>
</defs>
</svg>
