<svg width="14" height="14" viewBox="0 0 14 14" fill="none" xmlns="http://www.w3.org/2000/svg">
<path d="M0.547745 1.53125C0.547745 1.16758 0.840323 0.875 1.204 0.875H2.079C2.44267 0.875 2.73525 1.16758 2.73525 1.53125V4.8125H3.17275C3.53642 4.8125 3.829 5.10508 3.829 5.46875C3.829 5.83242 3.53642 6.125 3.17275 6.125H0.985245C0.621573 6.125 0.328995 5.83242 0.328995 5.46875C0.328995 5.10508 0.621573 4.8125 0.985245 4.8125H1.42275V2.1875H1.204C0.840323 2.1875 0.547745 1.89492 0.547745 1.53125ZM2.2622 9.32969C2.08446 9.12734 1.76181 9.14102 1.60595 9.3625L1.2997 9.78633C1.08915 10.0816 0.678995 10.15 0.383683 9.93945C0.08837 9.72891 0.0200106 9.31875 0.230558 9.02344L0.534073 8.59688C1.18212 7.68906 2.51103 7.62344 3.24657 8.46289C3.829 9.13008 3.81532 10.1281 3.2165 10.7789L2.26493 11.8125H3.17275C3.53642 11.8125 3.829 12.1051 3.829 12.4688C3.829 12.8324 3.53642 13.125 3.17275 13.125H0.766495C0.506729 13.125 0.268839 12.9719 0.164933 12.7313C0.0610263 12.4906 0.107511 12.2145 0.282511 12.023L2.25126 9.89024C2.39618 9.73164 2.39892 9.49102 2.25946 9.32969H2.2622ZM5.79775 1.96875H13.2352C13.5989 1.96875 13.8915 2.26133 13.8915 2.625C13.8915 2.98867 13.5989 3.28125 13.2352 3.28125H5.79775C5.43407 3.28125 5.1415 2.98867 5.1415 2.625C5.1415 2.26133 5.43407 1.96875 5.79775 1.96875ZM5.79775 6.34375H13.2352C13.5989 6.34375 13.8915 6.63633 13.8915 7C13.8915 7.36367 13.5989 7.65625 13.2352 7.65625H5.79775C5.43407 7.65625 5.1415 7.36367 5.1415 7C5.1415 6.63633 5.43407 6.34375 5.79775 6.34375ZM5.79775 10.7188H13.2352C13.5989 10.7188 13.8915 11.0113 13.8915 11.375C13.8915 11.7387 13.5989 12.0313 13.2352 12.0313H5.79775C5.43407 12.0313 5.1415 11.7387 5.1415 11.375C5.1415 11.0113 5.43407 10.7188 5.79775 10.7188Z" fill="#6B6F76"/>
</svg>
