<svg width="18" height="19" viewBox="0 0 18 19" fill="none" xmlns="http://www.w3.org/2000/svg">
<path d="M4.6875 0C5.20703 0 5.625 0.417969 5.625 0.9375V2.5H11.875V0.9375C11.875 0.417969 12.293 0 12.8125 0C13.332 0 13.75 0.417969 13.75 0.9375V2.5H15C16.3789 2.5 17.5 3.62109 17.5 5V16.25C17.5 17.6289 16.3789 18.75 15 18.75H2.5C1.12109 18.75 0 17.6289 0 16.25V5C0 3.62109 1.12109 2.5 2.5 2.5H3.75V0.9375C3.75 0.417969 4.16797 0 4.6875 0ZM4.6875 4.375H2.5C2.15625 4.375 1.875 4.65625 1.875 5V6.875H15.625V5C15.625 4.65625 15.3438 4.375 15 4.375H4.6875ZM1.875 8.75V16.25C1.875 16.5938 2.15625 16.875 2.5 16.875H15C15.3438 16.875 15.625 16.5938 15.625 16.25V8.75H1.875Z" fill="black"/>
</svg>
