<svg width="18" height="18" viewBox="0 0 18 18" fill="none" xmlns="http://www.w3.org/2000/svg">
<path d="M9.375 15.625H2.5C2.15625 15.625 1.875 15.3438 1.875 15V2.5C1.875 2.15625 2.15625 1.875 2.5 1.875H15C15.3438 1.875 15.625 2.15625 15.625 2.5V9.375H12.1875C10.6328 9.375 9.375 10.6328 9.375 12.1875V15.625ZM14.8477 11.25L11.25 14.8477V12.1875C11.25 11.668 11.668 11.25 12.1875 11.25H14.8477ZM0 15C0 16.3789 1.12109 17.5 2.5 17.5H10.2148C10.8789 17.5 11.5156 17.2383 11.9844 16.7695L16.7695 11.9805C17.2383 11.5117 17.5 10.875 17.5 10.2109V2.5C17.5 1.12109 16.3789 0 15 0H2.5C1.12109 0 0 1.12109 0 2.5V15Z" fill="black"/>
</svg>
