<svg width="163" height="163" viewBox="0 0 163 163" fill="none" xmlns="http://www.w3.org/2000/svg">
<path d="M0 33C0 14.7746 14.7746 0 33 0H130C148.225 0 163 14.7746 163 33V130C163 148.225 148.225 163 130 163H33C14.7746 163 0 148.225 0 130V33Z" fill="#2CA01C"/>
<path d="M97.8665 67.1228V58.6585H101.281C113.976 58.6522 124.016 69.0597 124 81.5267C123.984 94.0063 113.898 104.338 101.19 104.338H84.7809L84.7746 43C89.6006 42.9623 93.2988 46.9303 93.2957 51.6939L93.2705 95.852L101.221 95.8457C109.172 95.8394 115.391 89.2176 115.353 81.4261C115.315 73.6189 109.027 67.1637 101.089 67.1354L97.8697 67.1228H97.8665Z" fill="#FEFFFE"/>
<path d="M61.7251 67.1385C53.7332 67.1385 47.4203 73.6095 47.3825 81.4293C47.3447 89.249 53.6513 95.8332 61.6495 95.8583L65.1555 95.8677V104.329L61.5896 104.335C48.8977 104.357 38.9087 93.7988 39 81.3349C39.0914 68.8427 49.2474 58.649 61.9613 58.6553L78.2318 58.6616V120.003C73.6294 120.031 69.7484 116.283 69.7453 111.639L69.7264 67.1385H61.7219H61.7251Z" fill="#FEFFFE"/>
</svg>
