<svg width="12" height="12" viewBox="0 0 12 12" fill="none" xmlns="http://www.w3.org/2000/svg">
<path d="M2.22877 2.22877V3.25734C2.22877 3.54234 1.99948 3.77162 1.71448 3.77162C1.42948 3.77162 1.2002 3.54234 1.2002 3.25734V2.05734C1.2002 1.58377 1.58377 1.2002 2.05734 1.2002H9.94305C10.4166 1.2002 10.8002 1.58377 10.8002 2.05734V3.25734C10.8002 3.54234 10.5709 3.77162 10.2859 3.77162C10.0009 3.77162 9.77162 3.54234 9.77162 3.25734V2.22877H6.51448V9.77162H7.54305C7.82805 9.77162 8.05734 10.0009 8.05734 10.2859C8.05734 10.5709 7.82805 10.8002 7.54305 10.8002H4.45734C4.17234 10.8002 3.94305 10.5709 3.94305 10.2859C3.94305 10.0009 4.17234 9.77162 4.45734 9.77162H5.48591V2.22877H2.22877Z" fill="#90959D"/>
</svg>
