<svg width="12" height="12" viewBox="0 0 12 12" fill="none" xmlns="http://www.w3.org/2000/svg">
<path d="M11.1638 6.16421C12.2787 5.02833 12.2787 3.18708 11.1638 2.0512C10.1025 0.969889 8.39841 0.911275 7.26765 1.91982L7.14664 2.02896C6.94826 2.2048 6.92842 2.51202 7.10101 2.71413C7.2736 2.91624 7.57514 2.93646 7.77352 2.76062L7.89453 2.65148C8.64837 1.98046 9.78311 2.01886 10.4913 2.74041C11.2333 3.49631 11.2333 4.72314 10.4913 5.48107L8.24368 7.769C7.50174 8.5249 6.29559 8.5249 5.55365 7.769C4.84543 7.04745 4.80774 5.89136 5.46636 5.12333L5.5596 5.01419C5.73219 4.81207 5.71235 4.50688 5.51397 4.32902C5.31559 4.15116 5.01604 4.17339 4.84146 4.37551L4.74822 4.48465C3.76029 5.6367 3.81782 7.37285 4.87915 8.45416C5.99405 9.59004 7.80129 9.59004 8.91618 8.45416L11.1638 6.16421ZM0.836171 5.71148C-0.278724 6.84736 -0.278724 8.68861 0.836171 9.82247C1.89949 10.9058 3.60357 10.9624 4.73434 9.95385L4.85535 9.8447C5.05373 9.66886 5.07357 9.36165 4.90098 9.15954C4.72838 8.95742 4.42685 8.93721 4.22847 9.11305L4.10746 9.22219C3.35361 9.89321 2.21888 9.85481 1.51066 9.13326C0.768722 8.37736 0.768722 7.15053 1.51066 6.3926L3.75831 4.10669C4.50025 3.35079 5.70441 3.35079 6.44834 4.10669C7.15656 4.82824 7.19425 5.98433 6.53563 6.75236L6.4285 6.87565C6.25591 7.07777 6.27575 7.38296 6.47413 7.56082C6.67251 7.73868 6.97206 7.71645 7.14664 7.51433L7.25376 7.39104C8.24368 6.23899 8.18615 4.50284 7.12481 3.41951C6.00992 2.28363 4.20268 2.28363 3.08778 3.41951L0.836171 5.71148Z" fill="#90959D"/>
</svg>
