<svg width="75" height="75" viewBox="0 0 75 75" fill="none" xmlns="http://www.w3.org/2000/svg">
<rect width="75" height="75" rx="16.0061" fill="white"/>
<path d="M66.8474 50.8218V60.5505C66.8474 63.9908 64.0514 66.7814 60.6021 66.7814H10.922C9.39236 66.7814 8.62563 64.9357 9.70751 63.8566L21.3526 52.2439C22.2654 51.3335 23.5049 50.8218 24.7962 50.8218H66.8512H66.8474Z" fill="black"/>
<path d="M66.8455 28.8457V38.5725C66.8455 42.0128 64.0495 44.8034 60.5982 44.8034H28.8086L43.3842 30.2678C44.297 29.3574 45.5345 28.8457 46.8259 28.8457H66.8474H66.8455Z" fill="black"/>
<path d="M66.8491 11.0044V16.599C66.8491 20.0393 64.0531 22.8299 60.6019 22.8299H50.8457L63.9167 9.7931C64.9986 8.71405 66.8491 9.47878 66.8491 11.0044Z" fill="black"/>
</svg>
