<svg width="14" height="14" viewBox="0 0 14 14" fill="none" xmlns="http://www.w3.org/2000/svg">
<path d="M1.1502 1.3752C1.1502 1.00113 1.45113 0.700195 1.8252 0.700195H4.5252C4.89926 0.700195 5.2002 1.00113 5.2002 1.3752C5.2002 1.74926 4.89926 2.0502 4.5252 2.0502H3.8502V6.1002C3.8502 7.84113 5.25926 9.2502 7.0002 9.2502C8.74113 9.2502 10.1502 7.84113 10.1502 6.1002V2.0502H9.4752C9.10113 2.0502 8.8002 1.74926 8.8002 1.3752C8.8002 1.00113 9.10113 0.700195 9.4752 0.700195H12.1752C12.5493 0.700195 12.8502 1.00113 12.8502 1.3752C12.8502 1.74926 12.5493 2.0502 12.1752 2.0502H11.5002V6.1002C11.5002 8.58645 9.48645 10.6002 7.0002 10.6002C4.51395 10.6002 2.5002 8.58645 2.5002 6.1002V2.0502H1.8252C1.45113 2.0502 1.1502 1.74926 1.1502 1.3752ZM0.700195 12.6252C0.700195 12.2511 1.00113 11.9502 1.3752 11.9502H12.6252C12.9993 11.9502 13.3002 12.2511 13.3002 12.6252C13.3002 12.9993 12.9993 13.3002 12.6252 13.3002H1.3752C1.00113 13.3002 0.700195 12.9993 0.700195 12.6252Z" fill="#6B6F76"/>
</svg>
