<svg width="14" height="14" viewBox="0 0 14 14" fill="none" xmlns="http://www.w3.org/2000/svg">
<path d="M0.933333 1.40039C0.685798 1.40039 0.448401 1.49872 0.273367 1.67376C0.098333 1.84879 0 2.08619 0 2.33372C0 2.58126 0.098333 2.81866 0.273367 2.99369C0.448401 3.16872 0.685798 3.26706 0.933333 3.26706C1.18087 3.26706 1.41827 3.16872 1.5933 2.99369C1.76833 2.81866 1.86667 2.58126 1.86667 2.33372C1.86667 2.08619 1.76833 1.84879 1.5933 1.67376C1.41827 1.49872 1.18087 1.40039 0.933333 1.40039ZM4.43333 1.63372C4.04542 1.63372 3.73333 1.94581 3.73333 2.33372C3.73333 2.72164 4.04542 3.03372 4.43333 3.03372H13.3C13.6879 3.03372 14 2.72164 14 2.33372C14 1.94581 13.6879 1.63372 13.3 1.63372H4.43333ZM4.43333 6.30039C4.04542 6.30039 3.73333 6.61247 3.73333 7.00039C3.73333 7.38831 4.04542 7.70039 4.43333 7.70039H13.3C13.6879 7.70039 14 7.38831 14 7.00039C14 6.61247 13.6879 6.30039 13.3 6.30039H4.43333ZM4.43333 10.9671C4.04542 10.9671 3.73333 11.2791 3.73333 11.6671C3.73333 12.055 4.04542 12.3671 4.43333 12.3671H13.3C13.6879 12.3671 14 12.055 14 11.6671C14 11.2791 13.6879 10.9671 13.3 10.9671H4.43333ZM1.86667 7.00039C1.86667 6.75286 1.76833 6.51546 1.5933 6.34042C1.41827 6.16539 1.18087 6.06706 0.933333 6.06706C0.685798 6.06706 0.448401 6.16539 0.273367 6.34042C0.098333 6.51546 0 6.75286 0 7.00039C0 7.24793 0.098333 7.48532 0.273367 7.66036C0.448401 7.83539 0.685798 7.93372 0.933333 7.93372C1.18087 7.93372 1.41827 7.83539 1.5933 7.66036C1.76833 7.48532 1.86667 7.24793 1.86667 7.00039ZM0.933333 10.7337C0.685798 10.7337 0.448401 10.8321 0.273367 11.0071C0.098333 11.1821 0 11.4195 0 11.6671C0 11.9146 0.098333 12.152 0.273367 12.327C0.448401 12.5021 0.685798 12.6004 0.933333 12.6004C1.18087 12.6004 1.41827 12.5021 1.5933 12.327C1.76833 12.152 1.86667 11.9146 1.86667 11.6671C1.86667 11.4195 1.76833 11.1821 1.5933 11.0071C1.41827 10.8321 1.18087 10.7337 0.933333 10.7337Z" fill="#6B6F76"/>
</svg>
