<svg width="18" height="20" viewBox="0 0 18 20" fill="none" xmlns="http://www.w3.org/2000/svg">
<g clip-path="url(#clip0_1455_28000)">
<path d="M5.625 5C5.625 4.1712 5.95424 3.37634 6.54029 2.79029C7.12634 2.20424 7.9212 1.875 8.75 1.875C9.5788 1.875 10.3737 2.20424 10.9597 2.79029C11.5458 3.37634 11.875 4.1712 11.875 5C11.875 5.8288 11.5458 6.62366 10.9597 7.20971C10.3737 7.79576 9.5788 8.125 8.75 8.125C7.9212 8.125 7.12634 7.79576 6.54029 7.20971C5.95424 6.62366 5.625 5.8288 5.625 5ZM13.75 5C13.75 3.67392 13.2232 2.40215 12.2855 1.46447C11.3479 0.526784 10.0761 0 8.75 0C7.42392 0 6.15215 0.526784 5.21447 1.46447C4.27678 2.40215 3.75 3.67392 3.75 5C3.75 6.32608 4.27678 7.59785 5.21447 8.53553C6.15215 9.47322 7.42392 10 8.75 10C10.0761 10 11.3479 9.47322 12.2855 8.53553C13.2232 7.59785 13.75 6.32608 13.75 5ZM1.875 18.75C1.875 15.9883 4.11328 13.75 6.875 13.75H10.625C13.3867 13.75 15.625 15.9883 15.625 18.75V19.0625C15.625 19.582 16.043 20 16.5625 20C17.082 20 17.5 19.582 17.5 19.0625V18.75C17.5 14.9531 14.4219 11.875 10.625 11.875H6.875C3.07813 11.875 0 14.9531 0 18.75V19.0625C0 19.582 0.417969 20 0.9375 20C1.45703 20 1.875 19.582 1.875 19.0625V18.75Z" fill="black"/>
</g>
<defs>
<clipPath id="clip0_1455_28000">
<rect width="17.5" height="20" fill="white"/>
</clipPath>
</defs>
</svg>
