<svg width="145" height="145" viewBox="0 0 145 145" fill="none" xmlns="http://www.w3.org/2000/svg">
<path d="M144.783 104.581V129.078C144.783 137.741 137.76 144.767 129.097 144.767H4.32194C0.480187 144.767 -1.44552 140.12 1.2717 137.403L30.5192 108.162C32.8117 105.87 35.9247 104.581 39.168 104.581H144.792H144.783Z" fill="white"/>
<path d="M144.783 49.2463V73.7381C144.783 82.4007 137.761 89.4273 129.093 89.4273H49.251L85.8587 52.8272C88.1512 50.5349 91.2593 49.2463 94.5026 49.2463H144.788H144.783Z" fill="white"/>
<path d="M144.783 4.32162V18.4086C144.783 27.0712 137.761 34.0978 129.093 34.0978H104.59L137.419 1.27161C140.136 -1.44541 144.783 0.480151 144.783 4.32162Z" fill="white"/>
</svg>
