<svg width="823" height="153" viewBox="0 0 823 153" fill="none" xmlns="http://www.w3.org/2000/svg">
<path d="M201.652 123.715H189.03L230.812 22.1612H243.144L285.071 123.715H272.449L260.553 94.6996H213.548L201.652 123.715ZM237.05 37.6844L218.19 83.6738H255.91L237.05 37.6844ZM323.338 125.311C305.059 125.311 291.566 115.736 290.551 99.4871H302.302C303.173 109.497 312.312 115.01 323.919 115.01C334.799 115.01 340.022 110.803 340.022 103.114C340.022 95.8602 334.364 94.2644 326.385 91.5079L315.214 87.7359C303.898 83.9639 292.582 80.4821 292.582 66.5547C292.582 53.4978 302.737 45.0833 319.566 45.0833C336.54 45.0833 348.291 54.2232 350.177 71.3422H338.426C337.121 60.6065 329.577 55.3838 319.131 55.3838C309.701 55.3838 304.188 59.591 304.188 66.2645C304.188 74.2438 312.603 75.8396 318.986 78.0158L329.431 81.4976C343.504 86.1401 351.918 90.9276 351.918 103.694C351.918 117.187 342.053 125.311 323.338 125.311ZM391.099 125.311C372.82 125.311 359.327 115.736 358.312 99.4871H370.063C370.934 109.497 380.073 115.01 391.68 115.01C402.56 115.01 407.783 110.803 407.783 103.114C407.783 95.8602 402.125 94.2644 394.146 91.5079L382.975 87.7359C371.659 83.9639 360.343 80.4821 360.343 66.5547C360.343 53.4978 370.498 45.0833 387.327 45.0833C404.301 45.0833 416.053 54.2232 417.939 71.3422H406.187C404.882 60.6065 397.338 55.3838 386.892 55.3838C377.462 55.3838 371.949 59.591 371.949 66.2645C371.949 74.2438 380.364 75.8396 386.747 78.0158L397.193 81.4976C411.265 86.1401 419.679 90.9276 419.679 103.694C419.679 117.187 409.814 125.311 391.099 125.311ZM464.083 125.311C441.306 125.311 426.218 108.627 426.218 85.5598C426.218 59.3008 443.192 45.0833 462.632 45.0833C483.814 45.0833 497.451 59.3008 497.886 83.9639V87.3007H438.259C438.985 103.694 448.56 114.865 464.083 114.865C474.819 114.865 482.653 109.497 485.845 99.4871H497.596C494.114 115.301 481.637 125.311 464.083 125.311ZM438.985 77.2904H485.264C483.088 63.7982 474.964 55.5288 462.632 55.5288C450.446 55.5288 441.451 63.5081 438.985 77.2904ZM521.413 123.715H509.372V46.8242H518.947L520.108 58.7205C525.331 50.4512 535.341 45.0833 546.367 45.0833C557.973 45.0833 566.677 51.0315 570.594 60.3164C575.527 51.3216 586.118 45.0833 597.869 45.0833C614.118 45.0833 624.563 56.5444 624.563 72.2127V123.715H612.522V72.6479C612.522 62.3475 606.138 55.6739 595.838 55.6739C581.475 55.6739 573.061 65.249 572.916 77.0002V123.715H561.019V72.6479C561.019 62.3475 554.636 55.6739 544.336 55.6739C529.973 55.6739 521.559 65.249 521.413 77.0002V123.715ZM678.507 125.311C665.885 125.311 655.585 119.073 650.362 109.062L649.056 123.715H639.481V14.9073H651.522V58.8656C657.18 50.4512 666.901 45.0833 678.507 45.0833C698.817 45.0833 713.035 61.3319 713.035 84.8344C713.035 108.772 698.817 125.311 678.507 125.311ZM676.621 114.865C690.838 114.865 700.558 102.534 700.558 84.8344C700.558 67.5702 690.838 55.5288 676.476 55.5288C661.968 55.5288 651.522 67.2801 651.522 84.2541C651.522 102.244 661.968 114.865 676.621 114.865ZM736.993 123.715H724.952V14.9073H736.993V123.715ZM762.035 152.73H749.703V142.575H762.035C769.869 142.575 773.206 139.818 774.947 135.176L779.154 123.715H776.252L745.786 46.8242H758.698L783.651 111.674L807.734 46.8242H820.065L785.537 139.818C782.345 148.233 775.237 152.73 762.035 152.73Z" fill="#101010"/>
<path d="M144.783 104.581V129.078C144.783 137.741 137.76 144.767 129.097 144.767H4.32194C0.480187 144.767 -1.44552 140.12 1.2717 137.403L30.5192 108.162C32.8117 105.87 35.9247 104.581 39.168 104.581H144.792H144.783Z" fill="#101010"/>
<path d="M144.783 49.2463V73.7381C144.783 82.4007 137.761 89.4273 129.093 89.4273H49.251L85.8587 52.8272C88.1512 50.5349 91.2593 49.2463 94.5026 49.2463H144.788H144.783Z" fill="#101010"/>
<path d="M144.783 4.32162V18.4086C144.783 27.0712 137.761 34.0978 129.093 34.0978H104.59L137.419 1.27161C140.136 -1.44541 144.783 0.480151 144.783 4.32162Z" fill="#101010"/>
</svg>
