<svg width="20" height="20" viewBox="0 0 20 20" fill="none" xmlns="http://www.w3.org/2000/svg">
<path d="M0 4.5062C0.0686499 4.43755 1.03956 3.46664 2.90945 1.59675L3.46518 1.04102L4.57339 2.14922L3.00425 3.71836H7.12651H18.372V11.636L16.8029 10.0668V7.37969C15.6489 7.37969 14.7107 6.44147 14.7107 5.2875H5.29585C5.29585 5.31038 5.29585 5.33327 5.29585 5.35615L5.2272 5.2875H3.00752L4.57666 6.85664L3.46845 7.96485C3.3998 7.8962 2.4289 6.92529 0.559006 5.0554L0.00326905 4.49966L0 4.5062ZM1.63125 8.35713L3.20039 9.92627V12.6134C4.35436 12.6134 5.29258 13.5516 5.29258 14.7056H12.8768H14.7074C14.7074 14.6827 14.7074 14.6598 14.7074 14.637L14.7761 14.7056H16.9958C16.2439 13.9537 15.7208 13.4307 15.4266 13.1365L16.5348 12.0283C16.6035 12.0969 17.5744 13.0678 19.4443 14.9377L20 15.4935C19.9313 15.5621 18.9604 16.533 17.0906 18.4029L16.5348 18.9586L15.4266 17.8504C15.7208 17.5562 16.2439 17.0332 16.9958 16.2813H14.7761H1.62798V8.36367L1.63125 8.35713ZM6.83557 9.99819C6.83557 8.25579 8.24779 6.84683 9.99019 6.84683C11.7293 6.84683 13.1415 8.25579 13.1415 9.99819C13.1415 11.7406 11.7293 13.1528 9.99019 13.1528C8.24779 13.1528 6.83557 11.7406 6.83557 9.99819Z" fill="#212B36"/>
</svg>
