<svg width="20" height="20" viewBox="0 0 20 20" fill="none" xmlns="http://www.w3.org/2000/svg">
<path d="M17.6088 5.60786C17.8101 5.9273 17.831 6.31966 17.6886 6.653C17.5532 6.97244 17.3032 7.16688 16.9907 7.20855C16.9213 7.21897 16.8553 7.22244 16.7893 7.22244C16.3831 7.22244 16.0185 7.04536 15.7581 6.76411C15.4421 6.41688 14.9942 6.21897 14.522 6.21897C14.0497 6.21897 13.6018 6.42036 13.2893 6.76758C13.0358 7.04883 12.6747 7.22591 12.2615 7.22591C11.8518 7.22591 11.4872 7.04883 11.2338 6.76758C10.9178 6.41688 10.4699 6.21897 9.99765 6.21897C9.52542 6.21897 9.07751 6.41688 8.76153 6.76758C8.50806 7.04883 8.14695 7.22591 7.73376 7.22591C7.32403 7.22591 6.95945 7.04883 6.70598 6.76758C6.39001 6.41688 5.94209 6.21897 5.46987 6.21897C4.99764 6.21897 4.54973 6.41688 4.23376 6.76758C3.98028 7.04883 3.61917 7.22591 3.20598 7.22591C3.14348 7.22591 3.07403 7.22244 3.00459 7.21202C2.69556 7.17036 2.44903 6.97591 2.31362 6.65647C2.17126 6.32313 2.19209 5.93077 2.39348 5.61133L4.18167 2.77799H15.8206L17.6088 5.60786ZM16.7893 8.88911C16.9317 8.88911 17.0706 8.87869 17.206 8.86133C19.1331 8.60438 20.0463 6.34397 19.015 4.7155L17.0254 1.56619C16.8483 1.28494 16.5324 1.11133 16.1956 1.11133H3.80667C3.46987 1.11133 3.15389 1.28494 2.97681 1.56619L0.983756 4.7155C-0.0440221 6.3405 0.8657 8.60091 2.78584 8.86133C2.92473 8.87869 3.06709 8.88911 3.20598 8.88911C3.88653 8.88911 4.50806 8.66688 5.00806 8.29883C5.17473 8.1773 5.32751 8.03494 5.46639 7.88563C5.60528 8.03841 5.75806 8.1773 5.92473 8.29883C6.4282 8.66688 7.04973 8.88911 7.73028 8.88911C8.41084 8.88911 9.03237 8.66688 9.53584 8.29883C9.70251 8.1773 9.85528 8.03494 9.99417 7.88216C10.1331 8.03494 10.2858 8.17383 10.4525 8.29536C10.956 8.66341 11.5775 8.88563 12.2581 8.88563C12.9456 8.88563 13.5706 8.65994 14.074 8.28494C14.2372 8.16341 14.3865 8.02799 14.522 7.87869C14.6574 8.02799 14.8101 8.16688 14.9733 8.28841C15.4768 8.65994 16.1018 8.88563 16.7858 8.88563L16.7893 8.88911ZM3.89001 12.778V9.94466C3.66778 9.98286 3.44209 10.0002 3.20945 10.0002C3.01848 10.0002 2.82751 9.98633 2.64348 9.96202H2.64001C2.49764 9.94119 2.35876 9.91688 2.22334 9.88216V12.778V14.4447V16.6669C2.22334 17.8926 3.21987 18.8891 4.44556 18.8891H15.5567C16.7824 18.8891 17.7789 17.8926 17.7789 16.6669V14.4447V12.778V9.88216C17.64 9.91688 17.5011 9.94466 17.3518 9.96202C17.3518 9.96202 17.3518 9.96202 17.3483 9.96202C17.1643 9.98633 16.9768 10.0002 16.7858 10.0002C16.5567 10.0002 16.331 9.98286 16.1122 9.94466V12.778H3.89001ZM16.1122 14.4447V16.6669C16.1122 16.9724 15.8622 17.2224 15.5567 17.2224H4.44556C4.14001 17.2224 3.89001 16.9724 3.89001 16.6669V14.4447H16.1122Z" fill="#212B36"/>
</svg>
