<svg width="20" height="20" viewBox="0 0 20 20" fill="none" xmlns="http://www.w3.org/2000/svg">
<path d="M15.625 17.5V6.25H12.5C11.8086 6.25 11.25 5.69141 11.25 5V1.875H5C4.65625 1.875 4.375 2.15625 4.375 2.5V17.5C4.375 17.8438 4.65625 18.125 5 18.125H15C15.3438 18.125 15.625 17.8438 15.625 17.5ZM2.5 2.5C2.5 1.12109 3.62109 0 5 0H11.4648C12.1289 0 12.7656 0.261719 13.2344 0.730469L16.7695 4.26562C17.2383 4.73437 17.5 5.37109 17.5 6.03516V17.5C17.5 18.8789 16.3789 20 15 20H5C3.62109 20 2.5 18.8789 2.5 17.5V2.5ZM10 8.42188C10.4297 8.42188 10.7812 8.77344 10.7812 9.20313V9.59766C11.0625 9.64062 11.3359 9.69531 11.5859 9.75781C12.0039 9.85547 12.2656 10.2773 12.168 10.6992C12.0703 11.1211 11.6484 11.3789 11.2266 11.2812C10.7969 11.1797 10.375 11.1055 9.98828 11.0977C9.66797 11.0938 9.33594 11.1602 9.11328 11.2773C8.91016 11.3867 8.90625 11.4609 8.90625 11.5078C8.90625 11.5234 8.90625 11.5234 8.90625 11.5234C8.91797 11.5391 8.96094 11.5859 9.07812 11.6484C9.33203 11.7852 9.69531 11.8828 10.1953 12.0195L10.2227 12.0273C10.6602 12.1445 11.2148 12.293 11.6602 12.543C12.1445 12.8164 12.6445 13.293 12.6523 14.0781C12.6641 14.8867 12.1953 15.4375 11.6484 15.7383C11.3789 15.8867 11.0781 15.9844 10.7773 16.043V16.4375C10.7773 16.8672 10.4258 17.2187 9.99609 17.2187C9.56641 17.2187 9.21484 16.8672 9.21484 16.4375V16.0156C8.82422 15.9414 8.46094 15.8281 8.14062 15.7305C8.05859 15.7031 7.97656 15.6797 7.90234 15.6562C7.48828 15.5352 7.25391 15.0977 7.375 14.6836C7.49609 14.2695 7.93359 14.0352 8.34766 14.1562C8.44531 14.1836 8.53906 14.2148 8.62891 14.2422C9.16016 14.4023 9.57422 14.5273 10.0234 14.543C10.3711 14.5547 10.6953 14.4844 10.8984 14.3711C11.0703 14.2734 11.0977 14.1953 11.0938 14.1016V14.0977C11.0938 14.0781 11.1016 14.0195 10.8984 13.9102C10.6484 13.7695 10.2852 13.6641 9.79297 13.5312L9.72656 13.5117C9.30078 13.3984 8.76953 13.2539 8.34375 13.0273C7.86719 12.7734 7.35156 12.3086 7.34375 11.5195C7.33984 10.6992 7.85937 10.1758 8.38672 9.89844C8.64844 9.76172 8.93359 9.66797 9.21875 9.61328V9.21094C9.21875 8.78125 9.57031 8.42969 10 8.42969V8.42188ZM6.25 3.75H9.375C9.71875 3.75 10 4.03125 10 4.375C10 4.71875 9.71875 5 9.375 5H6.25C5.90625 5 5.625 4.71875 5.625 4.375C5.625 4.03125 5.90625 3.75 6.25 3.75ZM6.25 6.25H9.375C9.71875 6.25 10 6.53125 10 6.875C10 7.21875 9.71875 7.5 9.375 7.5H6.25C5.90625 7.5 5.625 7.21875 5.625 6.875C5.625 6.53125 5.90625 6.25 6.25 6.25Z" fill="#212B36"/>
</svg>
