<svg width="24" height="24" viewBox="0 0 24 24" fill="none" xmlns="http://www.w3.org/2000/svg">
<path d="M15.1466 3.61011H8.8541C5.9585 3.61011 3.61035 5.95826 3.61035 8.85385V15.1463C3.61035 18.0419 5.9585 20.3901 8.8541 20.3901H15.1466C18.0422 20.3901 20.3903 18.0419 20.3903 15.1463V8.85385C20.3903 5.95826 18.0422 3.61011 15.1466 3.61011ZM18.8172 15.1463C18.8172 17.1704 17.1707 18.817 15.1466 18.817H8.8541C6.83001 18.817 5.18348 17.1704 5.18348 15.1463V8.85385C5.18348 6.82977 6.83001 5.18323 8.8541 5.18323H15.1466C17.1707 5.18323 18.8172 6.82977 18.8172 8.85385V15.1463Z" fill="#101010"/>
<path d="M11.9987 7.80835C9.68202 7.80835 7.80371 9.68666 7.80371 12.0033C7.80371 14.32 9.68202 16.1983 11.9987 16.1983C14.3154 16.1983 16.1937 14.32 16.1937 12.0033C16.1937 9.68666 14.3154 7.80835 11.9987 7.80835ZM11.9987 14.6252C10.5535 14.6252 9.37683 13.4485 9.37683 12.0033C9.37683 10.5571 10.5535 9.38147 11.9987 9.38147C13.4439 9.38147 14.6206 10.5571 14.6206 12.0033C14.6206 13.4485 13.4439 14.6252 11.9987 14.6252Z" fill="#101010"/>
<path d="M16.5111 8.05229C16.8198 8.05229 17.0701 7.80202 17.0701 7.49331C17.0701 7.18459 16.8198 6.93433 16.5111 6.93433C16.2024 6.93433 15.9521 7.18459 15.9521 7.49331C15.9521 7.80202 16.2024 8.05229 16.5111 8.05229Z" fill="#101010"/>
</svg>
