<svg width="24" height="24" viewBox="0 0 24 24" fill="none" xmlns="http://www.w3.org/2000/svg">
<g clip-path="url(#clip0_1383_22792)">
<path d="M20.3945 20.3954V20.3947H20.3987V14.2333C20.3987 11.2191 19.7498 8.89722 16.226 8.89722C14.532 8.89722 13.3952 9.82682 12.9311 10.7081H12.8821V9.17862H9.54102V20.3947H13.02V14.8409C13.02 13.3786 13.2972 11.9646 15.1081 11.9646C16.8924 11.9646 16.919 13.6334 16.919 14.9347V20.3954H20.3945Z" fill="#101010"/>
<path d="M3.87402 9.18457H7.35722V20.4007H3.87402V9.18457Z" fill="#101010"/>
<path d="M5.61408 3.59888C4.50038 3.59888 3.59668 4.50258 3.59668 5.61628C3.59668 6.72998 4.50038 7.65258 5.61408 7.65258C6.72778 7.65258 7.63148 6.72998 7.63148 5.61628C7.63078 4.50258 6.72708 3.59888 5.61408 3.59888V3.59888Z" fill="#101010"/>
</g>
<defs>
<clipPath id="clip0_1383_22792">
<rect width="24" height="24" fill="white"/>
</clipPath>
</defs>
</svg>
