<svg width="12" height="12" viewBox="0 0 12 12" fill="none" xmlns="http://www.w3.org/2000/svg">
<g clip-path="url(#clip0_1493_21299)">
<path d="M5.99999 12C9.31296 12 12 9.31296 12 5.99999C12 2.68703 9.31296 0 5.99999 0C2.68703 0 0 2.68703 0 5.99999C0 9.31296 2.68508 12 5.99999 12Z" fill="#2CA01C"/>
<path d="M4.01355 3.65637C2.7342 3.65637 1.69678 4.6861 1.69678 5.95596C1.69678 7.22582 2.73226 8.25362 4.01355 8.25362H4.34452V7.40064H4.01355C3.21032 7.40064 2.55807 6.75322 2.55807 5.95596C2.55807 5.15869 3.21032 4.51127 4.01355 4.51127H4.80903V8.97788C4.80903 9.44856 5.19419 9.83086 5.66839 9.83086V3.65637H4.01355ZM7.98516 8.25362C9.26451 8.25362 10.3019 7.2239 10.3019 5.95596C10.3019 4.68802 9.26644 3.6583 7.98516 3.6583H7.65419V4.51127H7.98516C8.78838 4.51127 9.44064 5.15869 9.44064 5.95596C9.44064 6.75322 8.78838 7.40064 7.98516 7.40064H7.18967V2.93403C7.18967 2.46336 6.80451 2.08105 6.33032 2.08105V8.25362H7.98516Z" fill="white"/>
</g>
<defs>
<clipPath id="clip0_1493_21299">
<path d="M0 5.99999C0 2.68629 2.68629 0 5.99999 0V0C9.3137 0 12 2.68629 12 5.99999V5.99999C12 9.3137 9.3137 12 5.99999 12V12C2.68629 12 0 9.3137 0 5.99999V5.99999Z" fill="white"/>
</clipPath>
</defs>
</svg>
