<svg width="10" height="10" viewBox="0 0 10 10" fill="none" xmlns="http://www.w3.org/2000/svg">
<path d="M5 10C6.32608 10 7.59785 9.47322 8.53553 8.53553C9.47322 7.59785 10 6.32608 10 5C10 3.67392 9.47322 2.40215 8.53553 1.46447C7.59785 0.526784 6.32608 0 5 0C3.67392 0 2.40215 0.526784 1.46447 1.46447C0.526784 2.40215 0 3.67392 0 5C0 6.32608 0.526784 7.59785 1.46447 8.53553C2.40215 9.47322 3.67392 10 5 10ZM7.20703 4.08203L4.70703 6.58203C4.52344 6.76562 4.22656 6.76562 4.04492 6.58203L2.79492 5.33203C2.61133 5.14844 2.61133 4.85156 2.79492 4.66992C2.97852 4.48828 3.27539 4.48633 3.45703 4.66992L4.375 5.58789L6.54297 3.41797C6.72656 3.23438 7.02344 3.23438 7.20508 3.41797C7.38672 3.60156 7.38867 3.89844 7.20508 4.08008L7.20703 4.08203Z" fill="#115B3B"/>
</svg>
