<svg width="10" height="9" viewBox="0 0 10 9" fill="none" xmlns="http://www.w3.org/2000/svg">
<path d="M4.99928 0C5.27662 0 5.53248 0.146484 5.67311 0.386719L9.89186 7.57422C10.0344 7.81641 10.0344 8.11523 9.89576 8.35742C9.75709 8.59961 9.49732 8.75 9.21803 8.75H0.780529C0.501232 8.75 0.241467 8.59961 0.102795 8.35742C-0.0358771 8.11523 -0.033924 7.81445 0.106701 7.57422L4.32545 0.386719C4.46608 0.146484 4.72193 0 4.99928 0ZM4.99928 2.5C4.73951 2.5 4.53053 2.70898 4.53053 2.96875V5.15625C4.53053 5.41602 4.73951 5.625 4.99928 5.625C5.25904 5.625 5.46803 5.41602 5.46803 5.15625V2.96875C5.46803 2.70898 5.25904 2.5 4.99928 2.5ZM5.62428 6.875C5.62428 6.70924 5.55843 6.55027 5.44122 6.43306C5.32401 6.31585 5.16504 6.25 4.99928 6.25C4.83352 6.25 4.67455 6.31585 4.55734 6.43306C4.44013 6.55027 4.37428 6.70924 4.37428 6.875C4.37428 7.04076 4.44013 7.19973 4.55734 7.31694C4.67455 7.43415 4.83352 7.5 4.99928 7.5C5.16504 7.5 5.32401 7.43415 5.44122 7.31694C5.55843 7.19973 5.62428 7.04076 5.62428 6.875Z" fill="#863805"/>
</svg>
