<svg width="790" height="146" viewBox="0 0 790 146" fill="none" xmlns="http://www.w3.org/2000/svg">
<path d="M193.412 117.785H181.318L221.353 20.476H233.17L273.344 117.785H261.25L249.851 89.9825H204.811L193.412 117.785ZM227.331 35.3504L209.259 79.4175H245.403L227.331 35.3504ZM310.012 119.314C292.497 119.314 279.568 110.139 278.595 94.57H289.855C290.689 104.162 299.447 109.444 310.568 109.444C320.994 109.444 325.999 105.413 325.999 98.0453C325.999 91.0946 320.577 89.5655 312.932 86.9242L302.228 83.3099C291.385 79.6956 280.542 76.3593 280.542 63.014C280.542 50.5028 290.272 42.4401 306.398 42.4401C322.662 42.4401 333.923 51.1979 335.73 67.6014H324.47C323.219 57.3145 315.99 52.31 305.981 52.31C296.945 52.31 291.663 56.3414 291.663 62.736C291.663 70.3817 299.725 71.9108 305.842 73.996L315.851 77.3323C329.335 81.7808 337.398 86.3682 337.398 98.6013C337.398 111.53 327.945 119.314 310.012 119.314ZM374.941 119.314C357.426 119.314 344.497 110.139 343.524 94.57H354.784C355.618 104.162 364.376 109.444 375.497 109.444C385.923 109.444 390.928 105.413 390.928 98.0453C390.928 91.0946 385.506 89.5655 377.86 86.9242L367.156 83.3099C356.313 79.6956 345.47 76.3593 345.47 63.014C345.47 50.5028 355.201 42.4401 371.327 42.4401C387.591 42.4401 398.851 51.1979 400.659 67.6014H389.399C388.147 57.3145 380.919 52.31 370.91 52.31C361.874 52.31 356.591 56.3414 356.591 62.736C356.591 70.3817 364.654 71.9108 370.771 73.996L380.78 77.3323C394.264 81.7808 402.327 86.3682 402.327 98.6013C402.327 111.53 392.874 119.314 374.941 119.314ZM444.875 119.314C423.049 119.314 408.592 103.328 408.592 81.2247C408.592 56.0633 424.857 42.4401 443.484 42.4401C463.78 42.4401 476.848 56.0633 477.265 79.6956V82.8929H420.13C420.825 98.6013 430 109.305 444.875 109.305C455.162 109.305 462.668 104.162 465.726 94.57H476.987C473.65 109.722 461.695 119.314 444.875 119.314ZM420.825 73.301H465.17C463.085 60.3727 455.301 52.449 443.484 52.449C431.807 52.449 423.188 60.0947 420.825 73.301ZM499.809 117.785H488.271V44.1082H497.445L498.557 55.5073C503.562 47.5835 513.154 42.4401 523.719 42.4401C534.84 42.4401 543.181 48.1396 546.934 57.0364C551.66 48.4176 561.808 42.4401 573.069 42.4401C588.638 42.4401 598.647 53.4221 598.647 68.4355V117.785H587.109V68.8525C587.109 58.9826 580.992 52.588 571.122 52.588C557.36 52.588 549.297 61.7629 549.158 73.0229V117.785H537.759V68.8525C537.759 58.9826 531.643 52.588 521.773 52.588C508.01 52.588 499.948 61.7629 499.809 73.0229V117.785ZM650.336 119.314C638.242 119.314 628.372 113.337 623.367 103.745L622.116 117.785H612.941V13.5253H624.479V55.6463C629.901 47.5835 639.215 42.4401 650.336 42.4401C669.798 42.4401 683.421 58.0095 683.421 80.5296C683.421 103.467 669.798 119.314 650.336 119.314ZM648.529 109.305C662.152 109.305 671.466 97.4892 671.466 80.5296C671.466 63.9871 662.152 52.449 648.39 52.449C634.488 52.449 624.479 63.7091 624.479 79.9736C624.479 97.2112 634.488 109.305 648.529 109.305ZM706.378 117.785H694.84V13.5253H706.378V117.785ZM730.373 145.588H718.557V135.857H730.373C737.879 135.857 741.077 133.216 742.745 128.767L746.776 117.785H743.996L714.803 44.1082H727.175L751.086 106.247L774.162 44.1082H785.978L752.893 133.216C749.835 141.278 743.023 145.588 730.373 145.588Z" fill="black"/>
<path d="M138.878 100.104V123.552C138.878 131.844 132.142 138.569 123.832 138.569H4.14569C0.460605 138.569 -1.38657 134.121 1.21984 131.52L29.2747 103.532C31.4737 101.337 34.4597 100.104 37.5707 100.104H138.888H138.878Z" fill="black"/>
<path d="M138.879 47.1377V70.5809C138.879 78.8726 132.143 85.5984 123.829 85.5984H47.2427L82.3575 50.5653C84.5565 48.3711 87.5379 47.1377 90.6489 47.1377H138.884H138.879Z" fill="black"/>
<path d="M138.879 4.1366V17.6205C138.879 25.9122 132.143 32.638 123.829 32.638H100.325L131.815 1.21717C134.421 -1.38353 138.879 0.459594 138.879 4.1366Z" fill="black"/>
</svg>
