<svg width="24" height="24" viewBox="0 0 24 24" fill="none" xmlns="http://www.w3.org/2000/svg">
<g clip-path="url(#clip0_1383_22803)">
<path d="M19.7448 7.10283C19.1384 6.38194 18.0187 6.08789 15.8805 6.08789H8.11859C5.9314 6.08789 4.79279 6.40091 4.18864 7.1684C3.59961 7.91671 3.59961 9.01927 3.59961 10.5453V13.4538C3.59961 16.4101 4.29849 17.9111 8.11859 17.9111H15.8805C17.7348 17.9111 18.7623 17.6516 19.4271 17.0154C20.1088 16.363 20.3996 15.2979 20.3996 13.4538V10.5453C20.3996 8.93598 20.354 7.82691 19.7448 7.10283ZM14.3853 12.4011L10.8606 14.2432C10.7818 14.2843 10.6957 14.3048 10.6096 14.3048C10.5122 14.3048 10.4149 14.2785 10.3288 14.2264C10.1667 14.1282 10.0677 13.9524 10.0677 13.7628V10.0905C10.0677 9.90122 10.1664 9.72563 10.3282 9.62733C10.4901 9.52902 10.6914 9.5223 10.8594 9.60955L14.384 11.4398C14.5633 11.5329 14.676 11.718 14.6762 11.92C14.6764 12.1221 14.5643 12.3075 14.3853 12.4011Z" fill="#101010"/>
</g>
<defs>
<clipPath id="clip0_1383_22803">
<rect width="24" height="24" fill="white"/>
</clipPath>
</defs>
</svg>
